<?xml version="1.0" encoding="UTF-8"?>
<svg version="1.1" xmlns="http://www.w3.org/2000/svg" width="500" height="500">
<path d="M0 0 C165 0 330 0 500 0 C500 165 500 330 500 500 C335 500 170 500 0 500 C0 335 0 170 0 0 Z " fill="#E2DCDB" transform="translate(0,0)"/>
<path d="M0 0 C1.83465514 0.24781459 3.67235081 0.47360053 5.51171875 0.68359375 C26.73944974 3.27380094 26.73944974 3.27380094 36 5 C36 5.66 36 6.32 36 7 C32.87852455 8.67333158 29.75226502 10.33751716 26.625 12 C25.29082031 12.71542969 25.29082031 12.71542969 23.9296875 13.4453125 C23.07890625 13.89648438 22.228125 14.34765625 21.3515625 14.8125 C20.56604004 15.23144531 19.78051758 15.65039062 18.97119141 16.08203125 C17 17 17 17 15 17 C15.40992188 17.58007812 15.81984375 18.16015625 16.2421875 18.7578125 C21.72873434 26.71199284 24.26277888 33.21678675 23 43 C20.22633424 51.87573042 14.58161332 57.21509779 6.8125 61.9375 C-0.40842565 63.94988912 -8.03490398 64.46689798 -14.875 61 C-21.12299705 56.92272251 -26.2274428 51.39021949 -28.58203125 44.2265625 C-29.27077247 40.55756721 -29.16123978 36.94071066 -29.0078125 33.22265625 C-29.00523437 32.48917969 -29.00265625 31.75570312 -29 31 C-30.77026203 29.22973797 -33.38096191 29.38739218 -35.78515625 29.02734375 C-36.95498047 28.85009766 -38.12480469 28.67285156 -39.33007812 28.49023438 C-40.56177734 28.30783203 -41.79347656 28.12542969 -43.0625 27.9375 C-44.29806641 27.75123047 -45.53363281 27.56496094 -46.80664062 27.37304688 C-49.87056079 26.91168438 -52.935008 26.4541781 -56 26 C-53.95995723 23.80111204 -52.0773675 22.34775747 -49.40576172 20.99462891 C-48.69426971 20.63059967 -47.98277771 20.26657043 -47.24972534 19.89151001 C-46.48411285 19.50707733 -45.71850037 19.12264465 -44.9296875 18.7265625 C-44.13402374 18.32094086 -43.33835999 17.91531921 -42.51858521 17.49740601 C-39.97347101 16.20111327 -37.42445558 14.9127303 -34.875 13.625 C-32.34771809 12.34298936 -29.82130138 11.0593056 -27.29568481 9.77401733 C-25.72623824 8.97591242 -24.15573148 8.17988738 -22.58395386 7.38638306 C-17.95822691 5.04102399 -13.44618303 2.56709738 -8.98240662 -0.07536316 C-5.74209095 -1.58671568 -3.40576509 -0.83783997 0 0 Z " fill="#313C6A" transform="translate(201,196)"/>
<path d="M0 0 C5.86052642 0 9.46336931 0.50359675 14.6875 2.5625 C15.3786792 2.8291748 16.0698584 3.09584961 16.78198242 3.37060547 C24.67165086 6.51773587 32.95697409 9.94285816 38 17 C34.50130124 18.91904891 31.00080705 20.83480021 27.5 22.75 C26.51773438 23.28882813 25.53546875 23.82765625 24.5234375 24.3828125 C19.06536992 27.36655611 13.58490915 30.26073504 8 33 C9.86591797 33.29003906 9.86591797 33.29003906 11.76953125 33.5859375 C20.53286802 34.95479623 29.28674096 36.33566962 38 38 C38.09796875 38.99 38.1959375 39.98 38.296875 41 C39.27165535 51.64406189 39.27165535 51.64406189 44 61 C45.53518255 62.09012014 47.07463338 63.17424234 48.6171875 64.25390625 C51.7211864 66.96416322 52.87007087 68.38704428 53.7331543 72.45874023 C53.88510153 76.50888481 53.78889818 80.4580568 53.5625 84.5 C53.51728205 85.90872555 53.47623022 87.31759132 53.43945312 88.7265625 C53.33379284 92.15465165 53.18618347 95.57549729 53 99 C50.84540153 96.17329766 49.00324042 93.34279489 47.25 90.25 C40.47366236 78.9283548 31.84397069 72.49107165 20 67 C18.948125 66.46375 17.89625 65.9275 16.8125 65.375 C11.60548187 63.35898795 11.60548187 63.35898795 0 62 C0 41.54 0 21.08 0 0 Z " fill="#303C6A" transform="translate(129,190)"/>
<path d="M0 0 C2.97 0 5.94 0 9 0 C9 18.48 9 36.96 9 56 C12.96 56 16.92 56 21 56 C36.73380162 57.25726725 56.41856429 60.03358582 68 72 C69.02290723 73.3158414 70.0285285 74.64573972 71 76 C66.53584118 74.57555848 62.25606798 72.87768419 57.9375 71.0625 C39.30188942 63.51147112 19.89881826 63.1054899 0 62 C0 41.54 0 21.08 0 0 Z " fill="#3C4771" transform="translate(102,212)"/>
<path d="M0 0 C2.64 0 5.28 0 8 0 C8 18.81 8 37.62 8 57 C12.29 57.66 16.58 58.32 21 59 C36.7515774 63.50045068 50.34673945 71.39767832 60 85 C61.375 87.9375 61.375 87.9375 62 90 C61.01 89.154375 60.02 88.30875 59 87.4375 C58.3503125 86.88707031 57.700625 86.33664062 57.03125 85.76953125 C55.75133614 84.65452937 54.49663966 83.50922367 53.28125 82.32421875 C38.61471713 68.33311831 19.43571451 64.42946431 0 62 C0 41.54 0 21.08 0 0 Z " fill="#323E6B" transform="translate(116,199)"/>
<path d="M0 0 C1.65 0 3.3 0 5 0 C5 3.3 5 6.6 5 10 C9.455 9.505 9.455 9.505 14 9 C14 6.69 14 4.38 14 2 C13.01 1.67 12.02 1.34 11 1 C14 0 14 0 16.1875 0.9375 C17.0846875 1.4634375 17.0846875 1.4634375 18 2 C18.125 4.875 18.125 4.875 18 8 C17.34 8.66 16.68 9.32 16 10 C16.845625 10.515625 17.69125 11.03125 18.5625 11.5625 C21 14 21 14 21.125 17.5 C19.77034089 21.71449501 18.74850855 22.71614049 15 25 C12.20568447 25.46333584 9.50986561 25.38115551 6.6875 25.25 C5.57665039 25.22292969 5.57665039 25.22292969 4.44335938 25.1953125 C2.6283429 25.14847337 0.81399834 25.07673789 -1 25 C-0.67 24.34 -0.34 23.68 0 23 C0.08449628 21.2595583 0.10723024 19.51590278 0.09765625 17.7734375 C0.09443359 16.7421875 0.09121094 15.7109375 0.08789062 14.6484375 C0.07951172 13.56820313 0.07113281 12.48796875 0.0625 11.375 C0.05798828 10.28703125 0.05347656 9.1990625 0.04882812 8.078125 C0.03701776 5.38536211 0.02054778 2.69270812 0 0 Z " fill="#464F77" transform="translate(194,271)"/>
<path d="M0 0 C5.57894737 3.15789474 5.57894737 3.15789474 7 6 C7.55358359 10.05961302 7.12772011 11.77751981 5.0625 15.375 C2.73057442 17.88630447 0.90221669 18.51144724 -2.5 18.75 C-5.90221669 18.51144724 -7.73057442 17.88630447 -10.0625 15.375 C-12.17027232 11.70339661 -12.79149224 10.13334836 -12 6 C-8.53469916 0.80204874 -6.2477744 -0.60074754 0 0 Z " fill="#DFD9D9" transform="translate(229,278)"/>
<path d="M0 0 C4.63235294 2.26470588 4.63235294 2.26470588 6 5 C6.49786109 9.22773846 6.67393745 12.79863324 4.5625 16.5625 C0.72325024 18.71622547 -2.70180835 18.61628483 -7 18 C-9.5 17.0625 -9.5 17.0625 -11 15 C-11.89271164 11.9518596 -12.25029745 9.17043431 -12 6 C-8.75865414 0.63501376 -6.14547559 -0.48199809 0 0 Z " fill="#DED8D8" transform="translate(250,278)"/>
<path d="M0 0 C2.109375 -0.42578125 2.109375 -0.42578125 5 0 C7.4067386 1.99969391 9.29445343 4.3800493 11.25 6.8125 C12.06210937 7.77639648 12.06210937 7.77639648 12.890625 8.75976562 C15.19641692 11.54112712 16.84453922 13.53361766 18 17 C18.66 17 19.32 17 20 17 C19.67 11.39 19.34 5.78 19 0 C20.32 0.33 21.64 0.66 23 1 C22.67 9.25 22.34 17.5 22 26 C18.71008269 22.71008269 15.53912915 19.4522481 12.4375 16 C11.69371094 15.175 10.94992187 14.35 10.18359375 13.5 C8.05210405 11.05965402 6.02410227 8.53012783 4 6 C4 12.27 4 18.54 4 25 C2.68 24.67 1.36 24.34 0 24 C0.33 23.67 0.66 23.34 1 23 C1.09902107 21.46218409 1.13079567 19.91990556 1.1328125 18.37890625 C1.13410156 17.44369141 1.13539063 16.50847656 1.13671875 15.54492188 C1.13285156 14.56072266 1.12898438 13.57652344 1.125 12.5625 C1.12886719 11.58216797 1.13273437 10.60183594 1.13671875 9.59179688 C1.13542969 8.65529297 1.13414062 7.71878906 1.1328125 6.75390625 C1.13168457 5.89095947 1.13055664 5.0280127 1.12939453 4.13891602 C1.13721269 1.94743577 1.13721269 1.94743577 0 0 Z " fill="#38436F" transform="translate(278,271)"/>
<path d="M0 0 C7.11111111 -0.35555556 7.11111111 -0.35555556 10.5 1 C12.98177864 4.30903819 12.45095316 6.94142158 12 11 C7.7975546 13.80163026 4.99895065 13.14489712 0 13 C0 8.71 0 4.42 0 0 Z " fill="#E1DBDB" transform="translate(199,282)"/>
<path d="M0 0 C4.19769372 0.24692316 6.52655584 0.6474352 9.9375 3.1875 C12 6 12 6 12.625 8.9375 C11.80777993 12.94187835 10.37927705 15.70552551 7 18 C3.80544504 18.86651581 1.19455496 18.86651581 -2 18 C-4.62305913 16.21898526 -5.34699806 14.87942274 -7 12 C-7.5625 8.9375 -7.5625 8.9375 -7 6 C-5 3.125 -5 3.125 -3 1 C-2.34 1.33 -1.68 1.66 -1 2 C-1.33 2.33 -1.66 2.66 -2 3 C-2.43184702 7.09424198 -2.5582866 10.79527629 -0.8125 14.5625 C0.9623467 16.228202 0.9623467 16.228202 3.625 16.3125 C5.95137906 16.25156054 5.95137906 16.25156054 7 15 C7.52350491 8.61234002 7.52350491 8.61234002 5 3 C2.46229997 1.71745356 2.46229997 1.71745356 0 1 C0 0.67 0 0.34 0 0 Z " fill="#4F587E" transform="translate(224,278)"/>
<path d="M0 0 C3.6219058 0.27860814 6.31649437 0.57938115 9.4375 2.5 C11.78950397 6.26320635 11.75220386 9.68472522 11 14 C9.5625 16.5625 9.5625 16.5625 7 18 C2.93222366 18.64188764 -0.63492254 18.51190405 -4.5 17.0625 C-6.94838792 13.69596661 -7.33792917 10.10547993 -7 6 C-5.0625 2.9375 -5.0625 2.9375 -3 1 C-2.34 1.33 -1.68 1.66 -1 2 C-1.33 2.33 -1.66 2.66 -2 3 C-2.19989763 4.99990516 -2.19989763 4.99990516 -2.1875 7.3125 C-2.20167969 8.09238281 -2.21585938 8.87226563 -2.23046875 9.67578125 C-1.97984413 12.2032668 -1.26373772 13.81718031 0 16 C1.99954746 16.04254356 4.00041636 16.04080783 6 16 C7.43072341 14.79291436 7.43072341 14.79291436 7.1875 11.25 C7.12488506 7.76234802 6.91776999 5.01363855 5 2 C2.45224694 1.10613836 2.45224694 1.10613836 0 1 C0 0.67 0 0.34 0 0 Z " fill="#4E577C" transform="translate(245,278)"/>
<path d="M0 0 C6.75 0.75 6.75 0.75 9 3 C8.67 4.65 8.34 6.3 8 8 C4.04 8 0.08 8 -4 8 C-3.01 10.31 -2.02 12.62 -1 15 C2.3 15 5.6 15 9 15 C5.56925676 18.43074324 5.56925676 18.43074324 1.5625 18.4375 C-1.47511621 18.3088713 -2.86496172 18.07575318 -5.5625 16.5625 C-7.69513772 12.76084146 -7.81246972 9.2576538 -7 5 C-5 2.4375 -5 2.4375 -3 1 C-2.34 1.33 -1.68 1.66 -1 2 C-2.485 4.475 -2.485 4.475 -4 7 C-0.7 7 2.6 7 6 7 C4.19587357 3.73539027 3.16605307 2.11070205 0 0 Z " fill="#464F77" transform="translate(311,278)"/>
<path d="M0 0 C0 1.65 0 3.3 0 5 C1.32 5 2.64 5 4 5 C4 5.66 4 6.32 4 7 C2.68 7 1.36 7 0 7 C0 11.95 0 16.9 0 22 C0.99 22.33 1.98 22.66 3 23 C-1.75 24.125 -1.75 24.125 -4 23 C-4 15.74 -4 8.48 -4 1 C-2 0 -2 0 0 0 Z " fill="#545C80" transform="translate(343,273)"/>
<path d="M0 0 C9.65695939 -0.45663381 9.65695939 -0.45663381 14.125 1.0625 C16.81169854 3.83875516 16.86015528 6.2241925 17 10 C16 11 16 11 13.93359375 11.09765625 C10.46679688 11.04882812 10.46679688 11.04882812 7 11 C7 7.7 7 4.4 7 1 C5.02 1.33 3.04 1.66 1 2 C0.67 1.34 0.34 0.68 0 0 Z " fill="#D7D2D4" transform="translate(192,270)"/>
<path d="M0 0 C0.66 0 1.32 0 2 0 C2.33 8.91 2.66 17.82 3 27 C1.68 27 0.36 27 -1 27 C-1.02886537 22.68751391 -1.04675255 18.37505238 -1.0625 14.0625 C-1.07087891 12.83080078 -1.07925781 11.59910156 -1.08789062 10.33007812 C-1.09111328 9.16025391 -1.09433594 7.99042969 -1.09765625 6.78515625 C-1.10289307 5.70113525 -1.10812988 4.61711426 -1.11352539 3.50024414 C-1 1 -1 1 0 0 Z " fill="#2F3B69" transform="translate(261,269)"/>
<path d="M0 0 C0.66 0.33 1.32 0.66 2 1 C2 2.32 2 3.64 2 5 C2.55429687 5.19335938 3.10859375 5.38671875 3.6796875 5.5859375 C4.40414063 5.84632813 5.12859375 6.10671875 5.875 6.375 C6.59429687 6.63023437 7.31359375 6.88546875 8.0546875 7.1484375 C10 8 10 8 12 10 C11.75 12.5625 11.75 12.5625 11 15 C10.01 15.495 10.01 15.495 9 16 C9 14.35 9 12.7 9 11 C5.7 10.01 2.4 9.02 -1 8 C-1.625 5.125 -1.625 5.125 -2 2 C-1.34 1.34 -0.68 0.68 0 0 Z " fill="#444E76" transform="translate(324,279)"/>
<path d="M0 0 C0.66 0 1.32 0 2 0 C2 1.98 2 3.96 2 6 C2.78375 5.95875 3.5675 5.9175 4.375 5.875 C7 6 7 6 9 8 C8.44444444 12.55555556 8.44444444 12.55555556 7 14 C4.5 14.125 4.5 14.125 2 14 C0.12175109 12.12175109 0.60897603 8.96064724 0.4375 6.4375 C0.35371094 5.23996094 0.26992188 4.04242188 0.18359375 2.80859375 C0.12300781 1.88175781 0.06242187 0.95492188 0 0 Z " fill="#A29897" transform="translate(287,302)"/>
<path d="M0 0 C1.98 0 3.96 0 6 0 C4.8553125 0.8971875 4.8553125 0.8971875 3.6875 1.8125 C1.6516425 3.46959332 -0.1978279 5.10297674 -2 7 C-0.63629701 9.99220268 0.94908083 12.29026529 3.125 14.75 C3.66382813 15.36359375 4.20265625 15.9771875 4.7578125 16.609375 C5.16773438 17.06828125 5.57765625 17.5271875 6 18 C3.73828125 18.25 3.73828125 18.25 1 18 C-1.01953125 16.25 -1.01953125 16.25 -2.8125 14 C-3.41707031 13.2575 -4.02164062 12.515 -4.64453125 11.75 C-5.09183594 11.1725 -5.53914063 10.595 -6 10 C-4.38780081 6.59404766 -2.37368808 3.92754863 0 1 C0 0.67 0 0.34 0 0 Z " fill="#565E82" transform="translate(270,278)"/>
<path d="M0 0 C0.66 0.33 1.32 0.66 2 1 C1.67 1.33 1.34 1.66 1 2 C0.40703716 6.61733357 0.33114397 10.62051477 3 14.5625 C3.99 15.7690625 3.99 15.7690625 5 17 C1.58470886 16.7153924 0.21501576 16.20339329 -2.3125 13.8125 C-4.32835318 10.4527447 -4.64220846 8.85325079 -4 5 C-2 2.125 -2 2.125 0 0 Z " fill="#39446F" transform="translate(221,279)"/>
<path d="M0 0 C-2.1485844 2.36020967 -4.11743365 3.71551468 -7.01171875 5.04296875 C-8.14770508 5.56987305 -8.14770508 5.56987305 -9.30664062 6.10742188 C-10.09232422 6.46384766 -10.87800781 6.82027344 -11.6875 7.1875 C-12.48478516 7.55552734 -13.28207031 7.92355469 -14.10351562 8.30273438 C-16.06629769 9.2077297 -18.03279639 10.10465652 -20 11 C-19.63265042 8.56957189 -19.43882134 7.34436934 -17.46533203 5.7956543 C-16.49635986 5.3147937 -16.49635986 5.3147937 -15.5078125 4.82421875 C-14.80269531 4.47166016 -14.09757813 4.11910156 -13.37109375 3.75585938 C-12.62988281 3.40330078 -11.88867188 3.05074219 -11.125 2.6875 C-10.39152344 2.31560547 -9.65804687 1.94371094 -8.90234375 1.56054688 C-3.39654277 -1.13218092 -3.39654277 -1.13218092 0 0 Z " fill="#D3CED1" transform="translate(167,209)"/>
<path d="M0 0 C3.6219058 0.27860814 6.31649437 0.57938115 9.4375 2.5 C11.45146617 5.72234587 11.48085093 8.1430749 11.53125 11.87890625 C10.81689525 14.73107265 9.4383267 15.48572171 7 17 C7.03480469 16.00419922 7.03480469 16.00419922 7.0703125 14.98828125 C7.41145929 8.17405274 7.41145929 8.17405274 5 2 C2.45224694 1.10613836 2.45224694 1.10613836 0 1 C0 0.67 0 0.34 0 0 Z " fill="#424C75" transform="translate(245,278)"/>
<path d="M0 0 C2.91517292 1.07401108 4.77810176 1.77810176 7 4 C7 4.99 7 5.98 7 7 C3.7 7 0.4 7 -3 7 C-2 3 -2 3 0 0 Z " fill="#D8D3D5" transform="translate(310,278)"/>
<path d="M0 0 C1.32 0.33 2.64 0.66 4 1 C3.67 9.25 3.34 17.5 3 26 C1 24 1 24 0.9375 21.5 C0.958125 20.675 0.97875 19.85 1 19 C0.67 18.34 0.34 17.68 0 17 C-0.07194869 14.11629667 -0.09291708 11.25760336 -0.0625 8.375 C-0.05798828 7.57320313 -0.05347656 6.77140625 -0.04882812 5.9453125 C-0.03703168 3.96350994 -0.01909605 1.98174567 0 0 Z " fill="#8C8EA4" transform="translate(297,271)"/>
<path d="M0 0 C1.65 0.33 3.3 0.66 5 1 C5.33 3.31 5.66 5.62 6 8 C3.69 8 1.38 8 -1 8 C-0.67 6.68 -0.34 5.36 0 4 C0.99 4 1.98 4 3 4 C3 3.01 3 2.02 3 1 C2.34 1 1.68 1 1 1 C1 1.66 1 2.32 1 3 C0.34 3 -0.32 3 -1 3 C-0.67 2.01 -0.34 1.02 0 0 Z " fill="#948989" transform="translate(305,308)"/>
<path d="M0 0 C6.75 0.75 6.75 0.75 9 3 C8.67 4.65 8.34 6.3 8 8 C4.04 8 0.08 8 -4 8 C-4 7.67 -4 7.34 -4 7 C-0.7 7 2.6 7 6 7 C4.19587357 3.73539027 3.16605307 2.11070205 0 0 Z " fill="#586083" transform="translate(311,278)"/>
<path d="M0 0 C2.475 0.495 2.475 0.495 5 1 C4.67 2.32 4.34 3.64 4 5 C3.01 5 2.02 5 1 5 C1 6.98 1 8.96 1 11 C0.67 11 0.34 11 0 11 C0 7.37 0 3.74 0 0 Z " fill="#CDC5C4" transform="translate(225,304)"/>
<path d="M0 0 C0.66 0.33 1.32 0.66 2 1 C2 7.6 2 14.2 2 21 C0.68 20.67 -0.64 20.34 -2 20 C-1.67 19.67 -1.34 19.34 -1 19 C-0.84379445 17.58672053 -0.74943827 16.1664541 -0.68359375 14.74609375 C-0.64169922 13.89208984 -0.59980469 13.03808594 -0.55664062 12.15820312 C-0.51732422 11.26037109 -0.47800781 10.36253906 -0.4375 9.4375 C-0.39431641 8.53580078 -0.35113281 7.63410156 -0.30664062 6.70507812 C-0.20021858 4.47021515 -0.09820012 2.23523692 0 0 Z " fill="#656C8C" transform="translate(280,275)"/>
<path d="M0 0 C4 1 4 1 5 2 C5.04063832 3.66617115 5.042721 5.33388095 5 7 C4.01 7.33 3.02 7.66 2 8 C1.34 5.36 0.68 2.72 0 0 Z " fill="#3C4671" transform="translate(210,283)"/>
<path d="M0 0 C0.99 0.33 1.98 0.66 3 1 C2.67 2.65 2.34 4.3 2 6 C0.68 6 -0.64 6 -2 6 C-1.125 1.125 -1.125 1.125 0 0 Z " fill="#DDD6D5" transform="translate(248,309)"/>
<path d="M0 0 C1.65 0 3.3 0 5 0 C5 0.66 5 1.32 5 2 C4.01 2 3.02 2 2 2 C2.33 3.98 2.66 5.96 3 8 C2.01 8 1.02 8 0 8 C0 5.36 0 2.72 0 0 Z " fill="#807474" transform="translate(298,308)"/>
<path d="M0 0 C0.66 0.33 1.32 0.66 2 1 C1.34 3.31 0.68 5.62 0 8 C-0.66 7.34 -1.32 6.68 -2 6 C-2.33 7.65 -2.66 9.3 -3 11 C-3.33 11 -3.66 11 -4 11 C-4.36630156 7.06225823 -4.30233203 5.43460229 -2 2.125 C-1.34 1.42375 -0.68 0.7225 0 0 Z " fill="#5D6586" transform="translate(221,279)"/>
<path d="M0 0 C1.65 0 3.3 0 5 0 C5 0.66 5 1.32 5 2 C4.01 2 3.02 2 2 2 C2.33 3.98 2.66 5.96 3 8 C2.01 7.67 1.02 7.34 0 7 C0 4.69 0 2.38 0 0 Z " fill="#6E6161" transform="translate(313,308)"/>
</svg>
