<?xml version="1.0" encoding="UTF-8"?>
<svg version="1.1" xmlns="http://www.w3.org/2000/svg" width="1048" height="1048">
<path d="M0 0 C345.84 0 691.68 0 1048 0 C1048 345.84 1048 691.68 1048 1048 C702.16 1048 356.32 1048 0 1048 C0 702.16 0 356.32 0 0 Z " fill="#FEFEFE" transform="translate(0,0)"/>
<path d="M0 0 C1.18517212 0.01353516 1.18517212 0.01353516 2.39428711 0.02734375 C12.22919006 0.31847871 18.98905675 3.35885606 26.1484375 10.1640625 C34.20146281 19.42663311 35.4742942 30.52363867 35.4375 42.3125 C35.45361328 43.33730469 35.46972656 44.36210938 35.48632812 45.41796875 C35.4942412 57.87314554 31.99960138 67.21308483 23.359375 76.29296875 C15.56053536 83.40677518 6.78160393 84.82724722 -3.5234375 84.7109375 C-13.39509575 83.90555746 -20.29143253 78.74861786 -26.59765625 71.44140625 C-35.41135463 59.63927943 -35.12317833 43.52327716 -33.875 29.4375 C-33.05260729 25.38743698 -31.85163659 22.05377284 -29.875 18.4375 C-29.51277344 17.71820312 -29.15054687 16.99890625 -28.77734375 16.2578125 C-24.72440137 8.976255 -18.91696362 3.79040726 -11.06274414 1.02416992 C-7.3741541 0.03503011 -3.80151302 -0.05212573 0 0 Z " fill="#08AF95" transform="translate(394.875,675.5625)"/>
<path d="M0 0 C9.32250866 6.47298715 14.5680403 15.81171635 16.9453125 26.8125 C18.10822313 42.10357177 18.24482867 59.12879453 8.64453125 71.9453125 C2.77382801 78.39633813 -3.13652371 81.38526557 -11.921875 82.1484375 C-21.78290653 82.37086678 -29.21968212 81.47785126 -36.8046875 74.75 C-48.34346034 62.24743175 -47.83615555 44.52934313 -47.25 28.65429688 C-46.51027748 17.89133415 -41.45186154 9.74104597 -33.6796875 2.5 C-24.51232482 -4.82989565 -10.27324639 -5.93738955 0 0 Z " fill="#273E97" transform="translate(560.0546875,499.1875)"/>
<path d="M0 0 C39.63302752 0 39.63302752 0 49.78125 9.703125 C51.29522604 11.41005877 52.66706816 13.14942473 54 15 C54.556875 15.763125 55.11375 16.52625 55.6875 17.3125 C61.90474433 30.04304792 61.73811838 45.59547187 58.03515625 59.1328125 C54.62270535 68.58465765 49.54355771 74.59691229 40.6640625 79.21484375 C27.18649845 85.50586617 16.56463889 83 0 83 C0 55.61 0 28.22 0 0 Z " fill="#263E98" transform="translate(589,497)"/>
<path d="M0 0 C37.8974359 0 37.8974359 0 44.5 6.4375 C48.28845363 12.90944161 48.75938722 18.59837776 48 26 C46.22306413 32.49060407 42.59803152 35.55505753 37 39 C37.60328125 39.32871094 38.2065625 39.65742187 38.828125 39.99609375 C44.03272372 43.09366944 47.3068372 45.74455361 49.41015625 51.51171875 C51.13303292 58.77974813 50.66888733 65.38347236 47.2578125 72.0625 C43.3228099 78.12387046 38.75528472 79.46676823 32 82 C21.44 82 10.88 82 0 82 C0 54.94 0 27.88 0 0 Z " fill="#273F97" transform="translate(455,498)"/>
<path d="M0 0 C38.2184466 0 38.2184466 0 46 7 C50.06077712 11.87581765 50.60308721 15.42134708 50.4375 21.5 C50.44458984 22.23347656 50.45167969 22.96695313 50.45898438 23.72265625 C50.39482938 29.2399861 49.28483713 33.44145842 45.5 37.6796875 C41.33333333 41 41.33333333 41 38 41 C38 41.66 38 42.32 38 43 C38.598125 43.226875 39.19625 43.45375 39.8125 43.6875 C44.55588208 46.53352925 45.75727281 51.90097404 47.26171875 56.9453125 C47.45723831 57.59700409 47.65275787 58.24869568 47.85420227 58.9201355 C48.26327347 60.28903862 48.66900033 61.65894517 49.0715332 63.02978516 C49.68836102 65.12792876 50.31696686 67.22227475 50.94726562 69.31640625 C54 79.57278775 54 79.57278775 54 83 C48.06 83 42.12 83 36 83 C35.44570313 81.02515625 34.89140625 79.0503125 34.3203125 77.015625 C33.77779484 75.09594714 33.23524844 73.17627727 32.69189453 71.25683594 C32.31610272 69.92651351 31.94173681 68.5957874 31.56884766 67.26464844 C31.0314578 65.34724144 30.48844809 63.43141235 29.9453125 61.515625 C29.62062988 60.36352539 29.29594727 59.21142578 28.96142578 58.02441406 C28.64415527 57.02635742 28.32688477 56.02830078 28 55 C27.79487793 54.22624023 27.58975586 53.45248047 27.37841797 52.65527344 C25.496375 50.01196381 25.496375 50.01196381 18 50 C18 61.22 18 72.44 18 84 C12.06 84 6.12 84 0 84 C0 56.28 0 28.56 0 0 Z " fill="#2C439A" transform="translate(320,497)"/>
<path d="M0 0 C6.27 0 12.54 0 19 0 C19 10.56 19 21.12 19 32 C25.6 32 32.2 32 39 32 C39 21.44 39 10.88 39 0 C45.27 0 51.54 0 58 0 C58 27.06 58 54.12 58 82 C51.73 82 45.46 82 39 82 C39 70.45 39 58.9 39 47 C32.4 47 25.8 47 19 47 C19 58.55 19 70.1 19 82 C12.73 82 6.46 82 0 82 C0 54.94 0 27.88 0 0 Z " fill="#02AE94" transform="translate(291,677)"/>
<path d="M0 0 C7.59 0 15.18 0 23 0 C25.9072522 9.12554162 28.6656755 18.2143595 31.0078125 27.5 C31.90425826 30.66226537 32.99862999 33.67694445 34.17919922 36.74169922 C36.18785402 42.26818848 37.73379095 47.9610697 39.39453125 53.59960938 C40.98239545 58.91230921 42.74517768 63.93776509 45 69 C45.59673154 70.73862524 46.16387971 72.48797615 46.6875 74.25 C46.93886719 75.08015625 47.19023438 75.9103125 47.44921875 76.765625 C48 79 48 79 48 82 C41.73 82 35.46 82 29 82 C26 74 26 74 24 63 C15.09 63 6.18 63 -3 63 C-3.33 65.64 -3.66 68.28 -4 71 C-4.44742832 72.82618842 -4.93998026 74.64263673 -5.5 76.4375 C-5.7578125 77.28183594 -6.015625 78.12617187 -6.28125 78.99609375 C-7 81 -7 81 -8 82 C-9.34267413 82.08631874 -10.68974322 82.10706473 -12.03515625 82.09765625 C-12.84404297 82.09443359 -13.65292969 82.09121094 -14.48632812 82.08789062 C-15.33646484 82.07951172 -16.18660156 82.07113281 -17.0625 82.0625 C-17.91650391 82.05798828 -18.77050781 82.05347656 -19.65039062 82.04882812 C-21.76695663 82.03700373 -23.88348685 82.01906769 -26 82 C-25.32068691 79.74728243 -24.64104827 77.49466445 -23.9609375 75.2421875 C-23.30326488 73.02321076 -22.6634673 70.79887924 -22.0390625 68.5703125 C-19.18270226 58.44226112 -15.80246433 48.522256 -12.33270264 38.58981323 C-9.32680171 29.97637327 -6.49310624 21.36319339 -4.03515625 12.578125 C-2.81149004 8.34839578 -1.39240685 4.17722054 0 0 Z " fill="#07AE94" transform="translate(672,677)"/>
<path d="M0 0 C0.83265381 0.00523682 1.66530762 0.01047363 2.52319336 0.01586914 C3.42231445 0.0190918 4.32143555 0.02231445 5.24780273 0.02563477 C6.66609375 0.03820312 6.66609375 0.03820312 8.11303711 0.05102539 C9.06243164 0.05553711 10.01182617 0.06004883 10.98999023 0.06469727 C13.3435708 0.0765243 15.69701292 0.09384445 18.05053711 0.11352539 C21.7648773 8.61130831 24.29391529 17.39612015 26.81616211 26.29711914 C27.25850284 27.84515644 27.70119706 29.39309277 28.14422607 30.94093323 C29.06524594 34.16312714 29.98261264 37.38633088 30.8972168 40.61035156 C32.06999354 44.74363201 33.25108602 48.874481 34.43475723 53.00465298 C35.34705814 56.19076164 36.2554715 59.37796814 37.16265106 62.56553841 C37.59695045 64.09010004 38.03235318 65.61434781 38.4688797 67.13827324 C39.07583695 69.25971913 39.67765888 71.38255472 40.27807617 73.50585938 C40.6213092 74.71257797 40.96454224 75.91929657 41.31817627 77.1625824 C42.05053711 80.11352539 42.05053711 80.11352539 42.05053711 83.11352539 C35.78053711 83.11352539 29.51053711 83.11352539 23.05053711 83.11352539 C22.30803711 79.49383789 22.30803711 79.49383789 21.55053711 75.80102539 C21.39391602 75.04523193 21.23729492 74.28943848 21.07592773 73.51074219 C20.49760759 70.65471273 20.05053711 68.03500995 20.05053711 65.11352539 C11.47053711 65.11352539 2.89053711 65.11352539 -5.94946289 65.11352539 C-6.23821289 67.15540039 -6.52696289 69.19727539 -6.82446289 71.30102539 C-7.45008467 75.72506512 -8.2615221 78.89367342 -9.94946289 83.11352539 C-15.22946289 83.11352539 -20.50946289 83.11352539 -25.94946289 83.11352539 C-25.62121513 76.87681796 -24.22787677 71.61697002 -22.16503906 65.73242188 C-20.04354159 59.59436065 -18.29582896 53.37421529 -16.57446289 47.11352539 C-13.48526416 35.91072196 -10.17427594 24.78862002 -6.73657227 13.68823242 C-5.65325902 10.14461533 -4.61861076 6.58693932 -3.58911133 3.02734375 C-2.62845202 0.15306577 -2.62845202 0.15306577 0 0 Z " fill="#2B439A" transform="translate(405.949462890625,496.886474609375)"/>
<path d="M0 0 C6.6 0 13.2 0 20 0 C24.90882366 15.18912368 29.36856062 30.49128253 33.71582031 45.84838867 C34.69205197 49.29614256 35.67580533 52.74170383 36.66129875 56.18682003 C37.42667878 58.86665445 38.18729001 61.54782477 38.94653702 64.22940254 C39.48184885 66.11590903 40.02186926 68.00107739 40.5619812 69.88621521 C40.88296783 71.02583206 41.20395447 72.16544891 41.53466797 73.33959961 C41.81857391 74.33930283 42.10247986 75.33900604 42.39498901 76.3690033 C43 79 43 79 43 83 C37.06 83 31.12 83 25 83 C23.68 77.39 22.36 71.78 21 66 C12.75 65.67 4.5 65.34 -4 65 C-5.32 70.94 -6.64 76.88 -8 83 C-13.61 83 -19.22 83 -25 83 C-24.443125 80.69 -23.88625 78.38 -23.3125 76 C-23.06753784 74.96552734 -23.06753784 74.96552734 -22.81762695 73.91015625 C-21.48941998 68.5088288 -19.84014975 63.22464672 -18.16210938 57.9229126 C-16.2113149 51.73459017 -14.35701981 45.5196872 -12.51953125 39.296875 C-12.06689659 37.76661682 -12.06689659 37.76661682 -11.6051178 36.20544434 C-10.35349328 31.97216113 -9.10321975 27.73849176 -7.85766602 23.50341797 C-6.93578894 20.37107451 -6.00927599 17.24013301 -5.08203125 14.109375 C-4.80180618 13.15214539 -4.52158112 12.19491577 -4.23286438 11.2086792 C-3.96886337 10.31964905 -3.70486237 9.4306189 -3.43286133 8.51464844 C-3.20367508 7.73684021 -2.97448883 6.95903198 -2.73835754 6.15765381 C-2 4 -2 4 0 0 Z " fill="#2A4299" transform="translate(747,497)"/>
<path d="M0 0 C5.61 0 11.22 0 17 0 C17 10.89 17 21.78 17 33 C23.27 33 29.54 33 36 33 C36 22.11 36 11.22 36 0 C41.61 0 47.22 0 53 0 C53 27.39 53 54.78 53 83 C47.39 83 41.78 83 36 83 C36 71.45 36 59.9 36 48 C29.73 48 23.46 48 17 48 C17 59.55 17 71.1 17 83 C11.39 83 5.78 83 0 83 C0 55.61 0 28.22 0 0 Z " fill="#263E97" transform="translate(662,497)"/>
<path d="M0 0 C36.11111111 0 36.11111111 0 45.3125 6.25 C50.2747028 11.32760286 52.49808086 16.6113897 52.546875 23.7109375 C52.53140625 24.46632813 52.5159375 25.22171875 52.5 26 C52.51546875 26.75539063 52.5309375 27.51078125 52.546875 28.2890625 C52.50179454 34.84827013 50.6081639 40.0433064 46.24609375 44.98828125 C37.1525283 51.64642096 29.26326808 52 18 52 C18 61.57 18 71.14 18 81 C12.06 81 6.12 81 0 81 C0 54.27 0 27.54 0 0 Z " fill="#07AD94" transform="translate(503,677)"/>
<path d="M0 0 C33 0 33 0 43 6 C49.47811001 14.85782388 49.92511813 23.30945894 49 34 C47.48445019 40.80171451 43.72517912 45.1706587 38 49 C31.31320865 52.70484385 24.59802204 52 17 52 C17 61.9 17 71.8 17 82 C11.39 82 5.78 82 0 82 C0 54.94 0 27.88 0 0 Z " fill="#253D96" transform="translate(261,498)"/>
<path d="M0 0 C1.19882812 0.00773438 1.19882812 0.00773438 2.421875 0.015625 C7.87916266 0.0862695 13.21011176 0.57720828 18.625 1.25 C18.71516808 6.70836365 18.5421288 11.86186828 17.625 17.25 C16.87476563 17.0334375 16.12453125 16.816875 15.3515625 16.59375 C4.24831164 13.26224746 4.24831164 13.26224746 -6.62109375 15.53125 C-8.97575163 17.83870984 -8.89721977 19.9165931 -9.00390625 23.1171875 C-7.82977554 27.09902208 -4.85799695 29.34973276 -1.38989258 31.45507812 C0.89062133 32.69110702 3.19104356 33.88052577 5.5 35.0625 C12.75785737 38.91825941 18.83559694 42.67119388 22.625 50.25 C24.10825671 67.5421447 24.10825671 67.5421447 18.25 74.59375 C17.71375 75.1403125 17.1775 75.686875 16.625 76.25 C15.903125 77.013125 15.18125 77.77625 14.4375 78.5625 C4.05131241 84.79421255 -7.07189965 85.88630919 -18.84375 83.56640625 C-21.39502429 82.87927181 -23.88655049 82.13571932 -26.375 81.25 C-26.40215383 79.50008666 -26.42146551 77.75005055 -26.4375 76 C-26.44910156 75.02546875 -26.46070313 74.0509375 -26.47265625 73.046875 C-26.38695577 70.59241322 -26.08206066 68.58831086 -25.375 66.25 C-24.22 66.745 -23.065 67.24 -21.875 67.75 C-17.24837278 69.29220907 -12.8966004 69.61731342 -8.0625 69.6875 C-7.02222656 69.72037109 -7.02222656 69.72037109 -5.9609375 69.75390625 C-2.58487644 69.74079533 -0.68807854 69.47928989 2.0625 67.46484375 C3.96423811 64.76912998 4.39225322 62.54543236 4.16796875 59.25390625 C3.07315113 55.21332036 -0.01833345 53.34791659 -3.375 51.25 C-6.73293203 49.36666203 -10.12746684 47.54967323 -13.51391602 45.71826172 C-19.20793703 42.54935723 -24.77619945 38.84167719 -27.015625 32.41015625 C-28.21860245 25.17921572 -28.56343482 17.40384896 -24.703125 10.9609375 C-18.13569451 2.50054175 -10.40346254 -0.2659032 0 0 Z " fill="#08AE95" transform="translate(467.375,675.75)"/>
<path d="M0 0 C17.49 0 34.98 0 53 0 C53 4.62 53 9.24 53 14 C47.39 14 41.78 14 36 14 C36 36.44 36 58.88 36 82 C29.73 82 23.46 82 17 82 C17 59.56 17 37.12 17 14 C11.39 14 5.78 14 0 14 C0 9.38 0 4.76 0 0 Z " fill="#09AE94" transform="translate(596,677)"/>
<path d="M0 0 C6.27 0 12.54 0 19 0 C19 22.11 19 44.22 19 67 C27.58 67 36.16 67 45 67 C45 71.62 45 76.24 45 81 C30.15 81 15.3 81 0 81 C0 54.27 0 27.54 0 0 Z " fill="#01AE93" transform="translate(727,677)"/>
<path d="M0 0 C28.04545455 0 28.04545455 0 33.8125 4.375 C36.69079717 8.31372244 37.44923526 12.12716521 37.3203125 17.0078125 C36.62458201 21.33491678 34.01087578 24.15760352 30.75 26.875 C29.88375 27.431875 29.88375 27.431875 29 28 C29.88945313 29.20076172 29.88945313 29.20076172 30.796875 30.42578125 C33.4453497 34.40199657 34.81119135 38.66185954 36.25 43.1875 C36.518125 43.99380859 36.78625 44.80011719 37.0625 45.63085938 C39 51.57680963 39 51.57680963 39 55 C34.71 55 30.42 55 26 55 C25.66226563 53.81921875 25.32453125 52.6384375 24.9765625 51.421875 C24.52624434 49.86452471 24.07571229 48.30723627 23.625 46.75 C23.40328125 45.97269531 23.1815625 45.19539062 22.953125 44.39453125 C22.73398437 43.64042969 22.51484375 42.88632812 22.2890625 42.109375 C22.09006348 41.41811523 21.89106445 40.72685547 21.68603516 40.01464844 C21.45964355 39.34981445 21.23325195 38.68498047 21 38 C20.76716309 37.27586914 20.53432617 36.55173828 20.29443359 35.80566406 C18.77457943 33.23692635 18.77457943 33.23692635 13 33 C13 40.59 13 48.18 13 56 C8.71 56 4.42 56 0 56 C0 37.52 0 19.04 0 0 Z " fill="#08B5F6" transform="translate(559,601)"/>
<path d="M0 0 C4.95 0 9.9 0 15 0 C18.69585902 7.9710689 22.08177744 16.01811414 25.3125 24.1875 C26.859375 28.085625 28.40625 31.98375 30 36 C30.33 24.12 30.66 12.24 31 0 C34.63 0 38.26 0 42 0 C42 18.15 42 36.3 42 55 C37.05 55 32.1 55 27 55 C22.05 42.79 17.1 30.58 12 18 C11.67 30.54 11.34 43.08 11 56 C7.37 56 3.74 56 0 56 C0 37.52 0 19.04 0 0 Z " fill="#05B4F6" transform="translate(466,601)"/>
<path d="M0 0 C6.27 0 12.54 0 19 0 C19 27.06 19 54.12 19 82 C12.73 82 6.46 82 0 82 C0 54.94 0 27.88 0 0 Z " fill="#01AE93" transform="translate(566,677)"/>
<path d="M0 0 C5.28 0 10.56 0 16 0 C18.28594277 7.18764851 20.56440638 14.37760813 22.8359375 21.56982422 C23.60992025 24.01676548 24.38595149 26.46305977 25.1640625 28.90869141 C26.28142419 32.42182479 27.39142532 35.93721048 28.5 39.453125 C28.84998047 40.5480426 29.19996094 41.64296021 29.56054688 42.77105713 C29.88087891 43.79181335 30.20121094 44.81256958 30.53125 45.86425781 C30.81548828 46.76138489 31.09972656 47.65851196 31.39257812 48.58282471 C32 51 32 51 32 55 C27.71 55 23.42 55 19 55 C17.64851459 50.69214025 17 47.58042408 17 43 C10.73 43 4.46 43 -2 43 C-2.309375 44.60875 -2.61875 46.2175 -2.9375 47.875 C-3.875 52.75 -3.875 52.75 -5 55 C-8.96 55 -12.92 55 -17 55 C-14.34280234 43.3438913 -10.55107509 32.09521989 -6.8125 20.75 C-6.15130942 18.73319853 -5.49049895 16.71627241 -4.83007812 14.69921875 C-3.22443224 9.79803051 -1.61364689 4.89855955 0 0 Z " fill="#0BB5F4" transform="translate(619,601)"/>
<path d="M0 0 C4.22542199 1.05468669 6.86689554 3.17331662 9.47265625 6.6171875 C14.09949936 17.76367317 14.47954024 35.15960961 10.390625 46.5625 C8.7190687 50.3039409 7.01146467 53.40812374 3.72265625 55.9921875 C0.2463183 56.95783693 -2.99248596 57.28746991 -6.52734375 56.6171875 C-12.44626137 52.31252014 -15.31140488 45.66398934 -16.52734375 38.6171875 C-16.76342014 35.03598019 -16.75820628 31.45546266 -16.77734375 27.8671875 C-16.79796875 26.91585937 -16.81859375 25.96453125 -16.83984375 24.984375 C-16.88684197 16.4071997 -15.44433885 8.32390119 -9.39453125 1.8828125 C-6.32723598 -0.19627467 -3.62980115 -0.27374066 0 0 Z " fill="#F7FEFD" transform="translate(397.52734375,689.3828125)"/>
<path d="M0 0 C10.56 0 21.12 0 32 0 C32 3.3 32 6.6 32 10 C25.73 10 19.46 10 13 10 C13 14.29 13 18.58 13 23 C18.94 23 24.88 23 31 23 C31 26.3 31 29.6 31 33 C25.06 33 19.12 33 13 33 C13 37.62 13 42.24 13 47 C19.6 47 26.2 47 33 47 C33 50.3 33 53.6 33 57 C22.11 57 11.22 57 0 57 C0 38.19 0 19.38 0 0 Z " fill="#00B4F8" transform="translate(424,600)"/>
<path d="M0 0 C3.84037943 1.99888602 6.33148837 4.47023069 8.0703125 8.44921875 C8.84271462 10.95765088 9.47050908 13.42993256 10 16 C10.18304687 16.77085937 10.36609375 17.54171875 10.5546875 18.3359375 C12.38302213 29.27386925 12.02437391 42.98600174 6 52.625 C3.87797928 55.14489961 2.21536344 56.7633 -1.0859375 57.40625 C-5.62042693 57.59196288 -7.36236915 57.56832315 -10.875 54.4375 C-18.26276226 43.55965695 -18.49227149 28.37058712 -16.46875 15.6640625 C-14.20043509 6.66476965 -10.67996373 -1.42399516 0 0 Z " fill="#FAFBFD" transform="translate(548,510)"/>
<path d="M0 0 C8.00523682 0 11.61281188 0.69657538 18 5 C23.67464557 11.5258424 24.34563987 19.07677569 24.3125 27.375 C24.32861328 28.17421875 24.34472656 28.9734375 24.36132812 29.796875 C24.36703041 36.84490117 23.05583914 43.63153639 18.75 49.375 C12.66230711 55.18597958 8.56137031 55 0 55 C0 36.85 0 18.7 0 0 Z " fill="#FDFDFE" transform="translate(606,511)"/>
<path d="M0 0 C1.92005859 -0.00773438 1.92005859 -0.00773438 3.87890625 -0.015625 C7.4375 0.25 7.4375 0.25 12.4375 2.25 C12.4375 5.88 12.4375 9.51 12.4375 13.25 C11.674375 12.92 10.91125 12.59 10.125 12.25 C4.15736663 10.63165875 -1.99228874 9.85780223 -7.5625 12.875 C-12.62930897 18.89183565 -13.08712581 24.19604103 -12.91796875 31.82421875 C-12.35172579 37.28130746 -10.75669444 41.15267949 -6.79296875 44.94140625 C-3.90845258 46.63372309 -1.94964228 46.58384974 1.375 46.5 C2.90447266 46.47679687 2.90447266 46.47679687 4.46484375 46.453125 C7.20960441 46.26557237 9.75888975 45.86169 12.4375 45.25 C12.4375 48.55 12.4375 51.85 12.4375 55.25 C4.73767555 58.21147094 -5.32847091 59.17723642 -13.0625 55.75 C-20.07050929 51.41388967 -24.43579445 45.11380342 -26.5625 37.25 C-26.99493663 34.27745804 -27.08822575 31.37623075 -27.0625 28.375 C-27.05605469 27.58633545 -27.04960937 26.7976709 -27.04296875 25.98510742 C-26.76700937 17.16620809 -24.06457068 11.31877007 -17.625 5.25 C-12.28658809 0.68987812 -6.87496145 -0.02774959 0 0 Z " fill="#08B4F5" transform="translate(403.5625,599.75)"/>
<path d="M0 0 C12.21 0 24.42 0 37 0 C37 3.3 37 6.6 37 10 C33.04 10 29.08 10 25 10 C25 24.85 25 39.7 25 55 C20.71 55 16.42 55 12 55 C12 40.15 12 25.3 12 10 C8.04 10 4.08 10 0 10 C0 6.7 0 3.4 0 0 Z " fill="#01B4F8" transform="translate(515,601)"/>
<path d="M0 0 C3.96 0 7.92 0 12 0 C12 15.18 12 30.36 12 46 C17.94 46 23.88 46 30 46 C30 48.97 30 51.94 30 55 C20.1 55 10.2 55 0 55 C0 36.85 0 18.7 0 0 Z " fill="#08B3F3" transform="translate(657,601)"/>
<path d="M0 0 C4.99068135 0.49088669 6.20785864 2.01612965 9.8125 5.375 C10.8025 5.705 11.7925 6.035 12.8125 6.375 C13.080625 5.75625 13.34875 5.1375 13.625 4.5 C14.8125 2.375 14.8125 2.375 17.8125 0.375 C21.85490704 -0.07415634 24.13600465 0.01516205 27.75 1.9375 C29.8125 4.375 29.8125 4.375 30.4375 7.875 C29.8125 11.375 29.8125 11.375 27.8125 13.75 C23.99169657 15.81960186 21.13097103 16.0822223 16.8125 16.375 C17.37612302 18.42336882 17.37612302 18.42336882 18.8125 20.375 C21.67887282 21.46392339 21.67887282 21.46392339 24.8125 21.375 C27.17540685 20.06364588 27.17540685 20.06364588 28.8125 18.375 C29.4725 18.705 30.1325 19.035 30.8125 19.375 C27.02819571 24.10538036 27.02819571 24.10538036 23.83984375 24.8125 C20.56863725 24.91033047 18.18543668 24.58011517 15.3125 23 C13.8125 21.375 13.8125 21.375 13.8125 19.375 C13.255625 19.7359375 12.69875 20.096875 12.125 20.46875 C6.73377162 23.74719969 3.13376045 25.42854341 -3.1875 24.375 C-6.61366114 21.60491227 -8.95888419 19.40314885 -9.4609375 14.94921875 C-9.73778054 7.08048787 -9.73778054 7.08048787 -6.75 3.25 C-5.904375 2.63125 -5.05875 2.0125 -4.1875 1.375 C-3.1875 0.375 -3.1875 0.375 0 0 Z " fill="#F2F2FA" transform="translate(495.1875,413.625)"/>
<path d="M0 0 C3.15788995 0.53751318 4.60856405 1.35021297 6.9375 3.5 C9.6280528 2.27992056 9.6280528 2.27992056 11.9375 0.5 C15.79053968 0.06215458 17.47872122 0.19414748 20.75 2.375 C23.78465157 5.32294724 24.12877232 7.00325888 24.25 11.125 C24.18954524 16.34677954 23.07542742 20.29255391 19.9375 24.5 C16 27.5 16 27.5 12.9375 27.5 C12.9375 26.84 12.9375 26.18 12.9375 25.5 C14.60416667 23.83333333 16.27083333 22.16666667 17.9375 20.5 C18.2675 19.51 18.5975 18.52 18.9375 17.5 C17.865 17.726875 16.7925 17.95375 15.6875 18.1875 C11.9375 18.5 11.9375 18.5 9.5 17.0625 C8.984375 16.546875 8.46875 16.03125 7.9375 15.5 C7.7828125 16.5828125 7.7828125 16.5828125 7.625 17.6875 C6.66473906 21.61584021 5.38454096 24.55037937 1.9375 26.8125 C-0.0625 27.5 -0.0625 27.5 -3.0625 27.5 C-3.0625 26.84 -3.0625 26.18 -3.0625 25.5 C-2.27875 25.066875 -1.495 24.63375 -0.6875 24.1875 C2.35436215 22.23201719 2.92731901 20.89788151 3.9375 17.5 C2.865 17.726875 1.7925 17.95375 0.6875 18.1875 C-3.0625 18.5 -3.0625 18.5 -5.4375 17.25 C-7.81050167 14.69445974 -8.05633636 12.55547279 -8.4375 9.125 C-8.0625 5.5 -8.0625 5.5 -5.9375 2.5625 C-3.0625 0.5 -3.0625 0.5 0 0 Z " fill="#434590" transform="translate(555.0625,410.5)"/>
<path d="M0 0 C1.65 0 3.3 0 5 0 C4.67 1.98 4.34 3.96 4 6 C5.3303125 5.6596875 5.3303125 5.6596875 6.6875 5.3125 C10.62503952 4.94103401 11.89224597 5.66918448 15 8 C17.64824509 10.64824509 17.35941487 12.05703275 17.4375 15.75 C17.36734349 19.65070201 17.30291726 22.48666322 14.875 25.625 C9.82825731 29.79404831 6.56352876 30 0 30 C-0.33 33.96 -0.66 37.92 -1 42 C-2.65 42 -4.3 42 -6 42 C-5.86368164 40.88757935 -5.86368164 40.88757935 -5.72460938 39.75268555 C-5.31455313 36.39784717 -4.90724447 33.04268081 -4.5 29.6875 C-4.35691406 28.52025391 -4.21382812 27.35300781 -4.06640625 26.15039062 C-3.86337891 24.47299805 -3.86337891 24.47299805 -3.65625 22.76171875 C-3.46772461 21.2142395 -3.46772461 21.2142395 -3.27539062 19.63549805 C-2.94803651 16.94434873 -2.94803651 16.94434873 -3 14 C-3.33 14.66 -3.66 15.32 -4 16 C-4.66 15.67 -5.32 15.34 -6 15 C-5.38125 14.38125 -4.7625 13.7625 -4.125 13.125 C-1.28956063 8.95523622 -0.72665455 4.92404073 0 0 Z " fill="#979797" transform="translate(651,824)"/>
<path d="M0 0 C1.32 0 2.64 0 4 0 C4 1.98 4 3.96 4 6 C5.3303125 5.6596875 5.3303125 5.6596875 6.6875 5.3125 C10.62503952 4.94103401 11.89224597 5.66918448 15 8 C17.64824509 10.64824509 17.35941487 12.05703275 17.4375 15.75 C17.36734349 19.65070201 17.30291726 22.48666322 14.875 25.625 C9.82825731 29.79404831 6.56352876 30 0 30 C-0.33 33.96 -0.66 37.92 -1 42 C-2.65 42 -4.3 42 -6 42 C-5.90912109 41.36497559 -5.81824219 40.72995117 -5.72460938 40.07568359 C-5.31211332 37.17604783 -4.90600407 34.27555158 -4.5 31.375 C-4.35691406 30.37597656 -4.21382813 29.37695312 -4.06640625 28.34765625 C-3.39647818 23.53055443 -2.80021711 18.87803213 -3 14 C-3.33 14.66 -3.66 15.32 -4 16 C-4.66 15.67 -5.32 15.34 -6 15 C-5.38125 14.38125 -4.7625 13.7625 -4.125 13.125 C-1.28956063 8.95523622 -0.72665455 4.92404073 0 0 Z " fill="#969696" transform="translate(474,824)"/>
<path d="M0 0 C12.38684411 -0.43293824 12.38684411 -0.43293824 16.8125 3.6875 C18.50193235 6.97744721 18.38438874 9.34830698 18 13 C16.42857492 16.21427857 14.82261293 19.32495818 11.3125 20.625 C8.1942318 21.13066511 5.15248536 21.06062472 2 21 C1.93941406 21.66386719 1.87882812 22.32773437 1.81640625 23.01171875 C0.98418278 31.78207381 0.98418278 31.78207381 0 36 C-1.65 36 -3.3 36 -5 36 C-3.78495805 23.90675895 -2.1218829 11.96741956 0 0 Z " fill="#989898" transform="translate(404,818)"/>
<path d="M0 0 C1.65 0 3.3 0 5 0 C4.85936865 2.29199177 4.71234057 4.58359186 4.5625 6.875 C4.48128906 8.15117188 4.40007813 9.42734375 4.31640625 10.7421875 C4 14 4 14 3 16 C9.93 16 16.86 16 24 16 C24.144375 13.73125 24.28875 11.4625 24.4375 9.125 C24.875 2.25 24.875 2.25 26 0 C27.65 0 29.3 0 31 0 C27.83112696 24.77626887 27.83112696 24.77626887 26 36 C24.35 36 22.7 36 21 36 C20.7793602 29.82208548 21.39320413 26.42718346 23 20 C16.07 20 9.14 20 2 20 C1.67 25.28 1.34 30.56 1 36 C-0.65 36 -2.3 36 -4 36 C-3.45974917 23.87230035 -1.84178127 11.99150344 0 0 Z " fill="#989898" transform="translate(572,818)"/>
<path d="M0 0 C0.79921875 0.00902344 1.5984375 0.01804687 2.421875 0.02734375 C3.02515625 0.03894531 3.6284375 0.05054688 4.25 0.0625 C3.80348122 8.21734303 3.13849677 16.10514468 1.25 24.0625 C-0.07 24.0625 -1.39 24.0625 -2.75 24.0625 C-3.08 23.4025 -3.41 22.7425 -3.75 22.0625 C-4.74 22.7225 -5.73 23.3825 -6.75 24.0625 C-10.25 24 -10.25 24 -13.75 23.0625 C-16.50507831 20.1296747 -16.74212108 18.13341025 -17.1875 14.125 C-17.01847375 9.85909943 -15.50109882 7.3485347 -12.75 4.0625 C-8.79436134 0.47770247 -5.22744267 -0.07687416 0 0 Z " fill="#969696" transform="translate(715.75,829.9375)"/>
<path d="M0 0 C2.875 1.8125 2.875 1.8125 5 5 C5.92926353 10.24427854 5.76526019 15.26755488 3.3125 20.0625 C0.10291644 24.13953858 -2.03504279 24.67250713 -7 25.5 C-10.42864064 24.92855989 -12.02073014 23.86177323 -14.07421875 21.0390625 C-16.00736537 16.7812459 -15.94177437 12.51920897 -15 8 C-11.52910756 1.8066263 -7.21386149 -0.86566338 0 0 Z " fill="#969696" transform="translate(620,829)"/>
<path d="M0 0 C6.27 0 12.54 0 19 0 C19 22.11 19 44.22 19 67 C27.58 67 36.16 67 45 67 C45 71.62 45 76.24 45 81 C30.15 81 15.3 81 0 81 C0 54.27 0 27.54 0 0 Z M2 2 C2 27.74 2 53.48 2 80 C15.86 80 29.72 80 44 80 C44 76.04 44 72.08 44 68 C42.20691406 67.93941406 40.41382813 67.87882813 38.56640625 67.81640625 C36.23176176 67.73202151 33.89712681 67.64737249 31.5625 67.5625 C30.37849609 67.52318359 29.19449219 67.48386719 27.97460938 67.44335938 C26.84990234 67.40146484 25.72519531 67.35957031 24.56640625 67.31640625 C23.52427979 67.27974854 22.48215332 67.24309082 21.40844727 67.20532227 C19 67 19 67 18 66 C17.87630675 64.0064857 17.8220361 62.0086353 17.79467773 60.01147461 C17.77473251 58.73022202 17.75478729 57.44896942 17.73423767 56.12889099 C17.71725203 54.72004316 17.70037327 53.31119405 17.68359375 51.90234375 C17.66303085 50.46887095 17.64203456 49.03540431 17.62062073 47.60194397 C17.56533141 43.8224688 17.51595255 40.0429383 17.46777344 36.2633667 C17.41760835 32.40925145 17.36189629 28.55521691 17.30664062 24.70117188 C17.19897518 17.13418091 17.09806138 9.56712263 17 2 C12.05 2 7.1 2 2 2 Z " fill="#28AE99" transform="translate(727,677)"/>
<path d="M0 0 C2.875 1.8125 2.875 1.8125 5 5 C5.78807763 9.9589413 5.70951997 14.37824008 3.6875 19 C-0.86246418 24.39255014 -0.86246418 24.39255014 -5.375 25.0625 C-9.19609437 25.34300448 -9.79714682 25.14903499 -13.0625 22.75 C-15.57661433 18.97882851 -15.75624472 15.13718383 -15.5625 10.69921875 C-14.66940566 6.41360633 -12.4265784 3.65122124 -9 1 C-5.63633609 -0.1212213 -3.52465728 -0.42295887 0 0 Z " fill="#969696" transform="translate(461,829)"/>
<path d="M0 0 C3.75721552 3.75721552 5.14113617 7.0598202 5.25 12.3125 C5.18214895 17.52854921 3.86944277 21.13055723 0.125 24.875 C-2.60339698 26.31944546 -3.95369434 26.5944011 -7 26 C-10.5712894 23.09313654 -12.85383727 20.48045429 -14 16 C-14.44769299 10.35906827 -14.17371398 6.87391789 -11 2 C-7.58958882 -1.77581238 -4.7235266 -1.34957903 0 0 Z " fill="#484B90" transform="translate(594,412)"/>
<path d="M0 0 C1.65 0 3.3 0 5 0 C6.58403524 1.58403524 6.21974935 3.2771638 6.31640625 5.47265625 C6.35830078 6.37177734 6.40019531 7.27089844 6.44335938 8.19726562 C6.48267578 9.14279297 6.52199219 10.08832031 6.5625 11.0625 C6.60568359 12.01189453 6.64886719 12.96128906 6.69335938 13.93945312 C6.79979276 16.29281353 6.90181008 18.64628354 7 21 C8.32 21.33 9.64 21.66 11 22 C10.67 14.74 10.34 7.48 10 0 C11.65 0 13.3 0 15 0 C15.66 0.66 16.32 1.32 17 2 C17.66 1.34 18.32 0.68 19 0 C24.26015558 -0.55959102 24.26015558 -0.55959102 26.65942383 1.25512695 C28.29597745 3.38523964 28.41726198 4.56678788 28.51171875 7.23046875 C28.56489258 8.43413086 28.56489258 8.43413086 28.61914062 9.66210938 C28.64169922 10.49548828 28.66425781 11.32886719 28.6875 12.1875 C28.73874023 13.4549707 28.73874023 13.4549707 28.79101562 14.74804688 C28.87341471 16.83156649 28.93838645 18.91576216 29 21 C29.66 21.33 30.32 21.66 31 22 C31 22.66 31 23.32 31 24 C27.7 24 24.4 24 21 24 C21 23.34 21 22.68 21 22 C21.66 21.67 22.32 21.34 23 21 C23 15.72 23 10.44 23 5 C21.35 5 19.7 5 18 5 C16.26312034 6.73687966 16.86779634 8.96171192 16.86328125 11.2734375 C16.86908203 12.31371094 16.86908203 12.31371094 16.875 13.375 C16.87113281 14.06078125 16.86726563 14.7465625 16.86328125 15.453125 C16.86934954 18.57222638 17.00658545 21.01975635 18 24 C11.73 24 5.46 24 -1 24 C-1 23.34 -1 22.68 -1 22 C-0.34 22 0.32 22 1 22 C0.67 14.74 0.34 7.48 0 0 Z " fill="#474999" transform="translate(454,414)"/>
<path d="M0 0 C11.42307692 0 11.42307692 0 15 3 C16.33827901 5.67655801 16.20578556 7.82434052 16.25 10.8125 C16.27578125 11.85019531 16.3015625 12.88789062 16.328125 13.95703125 C15.95408344 17.42582145 15.07568054 19.22110993 13 22 C10 24 10 24 0 24 C0 16.08 0 8.16 0 0 Z " fill="#F7FEFD" transform="translate(521,691)"/>
<path d="M0 0 C10.56 0 21.12 0 32 0 C32 0.33 32 0.66 32 1 C21.77 1 11.54 1 1 1 C1 18.82 1 36.64 1 55 C10.9 55 20.8 55 31 55 C31 53.02 31 51.04 31 49 C24.73 49 18.46 49 12 49 C10.82205147 45.46615441 10.86735683 42.59722447 10.875 38.875 C10.87242187 37.61429688 10.86984375 36.35359375 10.8671875 35.0546875 C11 32 11 32 12 31 C14.86267567 30.92674832 17.700719 30.90761795 20.5625 30.9375 C21.36880859 30.94201172 22.17511719 30.94652344 23.00585938 30.95117188 C25.00393756 30.96299482 27.00197783 30.98093086 29 31 C29 29.02 29 27.04 29 25 C27.78441406 25.01160156 26.56882812 25.02320313 25.31640625 25.03515625 C23.73177236 25.04453278 22.14713682 25.05363313 20.5625 25.0625 C19.76005859 25.07087891 18.95761719 25.07925781 18.13085938 25.08789062 C16.08704779 25.0965143 14.04316098 25.0522815 12 25 C11 24 11 24 10.90234375 20.83984375 C10.91394531 19.55207031 10.92554688 18.26429688 10.9375 16.9375 C10.94652344 15.64714844 10.95554687 14.35679687 10.96484375 13.02734375 C10.97644531 12.02832031 10.98804688 11.02929688 11 10 C11.66 10 12.32 10 13 10 C13 14.29 13 18.58 13 23 C18.94 23 24.88 23 31 23 C31 26.3 31 29.6 31 33 C25.06 33 19.12 33 13 33 C13 37.62 13 42.24 13 47 C19.6 47 26.2 47 33 47 C33 50.3 33 53.6 33 57 C22.11 57 11.22 57 0 57 C0 38.19 0 19.38 0 0 Z " fill="#4BC1ED" transform="translate(424,600)"/>
<path d="M0 0 C8.4 0 8.4 0 12 2 C15.05166944 5.22120663 15.40812747 7.55915335 15.375 11.9375 C15.38273437 12.95714844 15.39046875 13.97679687 15.3984375 15.02734375 C14.86826183 18.98287009 13.49202884 21.83953313 10.3125 24.3125 C8 25 8 25 0 25 C0 16.75 0 8.5 0 0 Z " fill="#F3F5FB" transform="translate(278,511)"/>
<path d="M0 0 C10.48275862 0 10.48275862 0 14 3 C17.16955197 6.93461624 17.53348798 10.02077887 17 15 C15.69600069 18.08841941 14.72611897 19.55151476 11.875 21.3125 C9 22 9 22 0 22 C0 14.74 0 7.48 0 0 Z " fill="#F3F5FC" transform="translate(471,544)"/>
<path d="M0 0 C2.55778705 2.55778705 2.83368401 4.53299786 3.7265625 8.03125 C4.0359375 9.23394531 4.3453125 10.43664062 4.6640625 11.67578125 C4.98117187 12.93777344 5.29828125 14.19976563 5.625 15.5 C6.11226562 17.39298828 6.11226562 17.39298828 6.609375 19.32421875 C9 28.69587054 9 28.69587054 9 31 C3.06 31 -2.88 31 -9 31 C-7.87349442 21.98795537 -7.87349442 21.98795537 -6.66015625 17.94921875 C-6.40169922 17.08619141 -6.14324219 16.22316406 -5.87695312 15.33398438 C-5.47379883 14.02397461 -5.47379883 14.02397461 -5.0625 12.6875 C-4.79759766 11.79482422 -4.53269531 10.90214844 -4.25976562 9.98242188 C-3.11993441 6.22352441 -2.19824411 3.29736616 0 0 Z " fill="#F2FCFB" transform="translate(683,695)"/>
<path d="M0 0 C1.32 0 2.64 0 4 0 C3.67 4.62 3.34 9.24 3 14 C4.32 13.01 5.64 12.02 7 11 C13.32727273 11.32727273 13.32727273 11.32727273 16 14 C16.99363312 21.33535042 15.38236879 28.8166193 14 36 C12.35 36 10.7 36 9 36 C9.165 34.741875 9.33 33.48375 9.5 32.1875 C10.11073012 26.7855491 10.09133564 21.42939662 10 16 C7.42885142 16.34745251 5.45544207 16.70692405 3.2578125 18.12109375 C1.35795468 20.95908012 1.25783919 23.6969955 0.875 27.0625 C0.07692308 33.84615385 0.07692308 33.84615385 -1 36 C-2.32 36 -3.64 36 -5 36 C-5.26913745 28.88956208 -4.2357241 22.19030822 -3.0625 15.1875 C-2.78889648 13.49077148 -2.78889648 13.49077148 -2.50976562 11.75976562 C-1.14749524 3.44248573 -1.14749524 3.44248573 0 0 Z " fill="#9A9A9A" transform="translate(344,818)"/>
<path d="M0 0 C6.27 0 12.54 0 19 0 C19 27.06 19 54.12 19 82 C12.73 82 6.46 82 0 82 C0 54.94 0 27.88 0 0 Z M1 2 C1 27.74 1 53.48 1 80 C6.28 80 11.56 80 17 80 C17 54.26 17 28.52 17 2 C11.72 2 6.44 2 1 2 Z " fill="#33AF9C" transform="translate(566,677)"/>
<path d="M0 0 C2.9375 1.5625 2.9375 1.5625 5 4 C5.625 7.5 5.625 7.5 5 11 C2.23569209 14.28261564 -0.18393969 15.20734731 -4.3125 15.75 C-6.1378125 15.87375 -6.1378125 15.87375 -8 16 C-7.43637698 18.04836882 -7.43637698 18.04836882 -6 20 C-3.13362718 21.08892339 -3.13362718 21.08892339 0 21 C2.36290685 19.68864588 2.36290685 19.68864588 4 18 C4.66 18.33 5.32 18.66 6 19 C2.26530612 23.66836735 2.26530612 23.66836735 -0.9375 24.5078125 C-4.99083156 24.73811543 -6.595244 24.31676556 -9.875 21.75 C-13.55907723 16.98237065 -14.63926774 14.17958817 -14 8 C-10.44950066 1.51115637 -7.48364656 -0.77417033 0 0 Z " fill="#444693" transform="translate(520,414)"/>
<path d="M0 0 C6.27 0 12.54 0 19 0 C19 27.06 19 54.12 19 82 C12.73 82 6.46 82 0 82 C0 70.45 0 58.9 0 47 C0.33 47 0.66 47 1 47 C1 57.89 1 68.78 1 80 C6.28 80 11.56 80 17 80 C17 54.26 17 28.52 17 2 C11.72 2 6.44 2 1 2 C1 11.9 1 21.8 1 32 C0.67 32 0.34 32 0 32 C0 21.44 0 10.88 0 0 Z " fill="#3CB4A2" transform="translate(330,677)"/>
<path d="M0 0 C3.125 1.125 3.125 1.125 5 3 C5.3125 6.1875 5.3125 6.1875 5 9 C4.01 9 3.02 9 2 9 C1.5875 8.195625 1.175 7.39125 0.75 6.5625 C-0.84610632 3.62460451 -0.84610632 3.62460451 -4.5625 3.0625 C-5.696875 3.041875 -6.83125 3.02125 -8 3 C-8.66 3.66 -9.32 4.32 -10 5 C-9.67673447 8.59679066 -9.67673447 8.59679066 -9 12 C-8.27296875 12.26683594 -7.5459375 12.53367187 -6.796875 12.80859375 C-4.02254029 13.99039834 -1.73597203 15.36486474 0.75 17.0625 C1.52859375 17.58972656 2.3071875 18.11695313 3.109375 18.66015625 C5 20 5 20 6 21 C6.3125 23.8125 6.3125 23.8125 6 27 C4.1329009 29.30275556 2.64352259 30.67823871 0 32 C-1.78752492 32.14754174 -3.5816284 32.2211522 -5.375 32.25 C-6.33148438 32.27578125 -7.28796875 32.3015625 -8.2734375 32.328125 C-11.4297791 31.94827873 -12.77690008 31.24919265 -15 29 C-15.25 25.8125 -15.25 25.8125 -15 23 C-14.01 22.67 -13.02 22.34 -12 22 C-11.34 23.98 -10.68 25.96 -10 28 C-5.38492226 29.04214691 -5.38492226 29.04214691 -1 28 C-0.34227572 24.97065509 -0.34227572 24.97065509 0 22 C-0.5775 21.71769531 -1.155 21.43539063 -1.75 21.14453125 C-7.30969085 18.31642462 -12.70784274 15.48692877 -16 10 C-16.625 7.5 -16.625 7.5 -16 5 C-11.36914435 -0.48390801 -6.96120814 -1.04244381 0 0 Z " fill="#404294" transform="translate(445,406)"/>
<path d="M0 0 C2 1.625 2 1.625 3 4 C3 6.31 3 8.62 3 11 C-2.28 11 -7.56 11 -13 11 C-11.46687233 15.31608796 -11.46687233 15.31608796 -9 19 C-5.05163095 19.2632246 -2.39620731 19.08997373 1 17 C1 18.65 1 20.3 1 22 C-2.68000183 24.45333455 -6.72647768 24.8479211 -11 24 C-14.75486024 21.04404619 -16.57820389 18.75502272 -17.30859375 13.984375 C-17.57646921 9.34120042 -17.22407468 6.6378766 -14.1875 3 C-9.97352554 -1.49490609 -5.69762845 -1.50749753 0 0 Z " fill="#979797" transform="translate(522,830)"/>
<path d="M0 0 C2 1.625 2 1.625 3 4 C3 6.31 3 8.62 3 11 C-2.28 11 -7.56 11 -13 11 C-11.46687233 15.31608796 -11.46687233 15.31608796 -9 19 C-5.05163095 19.2632246 -2.39620731 19.08997373 1 17 C1 18.65 1 20.3 1 22 C-2.68000183 24.45333455 -6.72647768 24.8479211 -11 24 C-14.75486024 21.04404619 -16.57820389 18.75502272 -17.30859375 13.984375 C-17.57646921 9.34120042 -17.22407468 6.6378766 -14.1875 3 C-9.97352554 -1.49490609 -5.69762845 -1.50749753 0 0 Z " fill="#979797" transform="translate(381,830)"/>
<path d="M0 0 C6.27 0 12.54 0 19 0 C19 10.23 19 20.46 19 31 C18.67 31 18.34 31 18 31 C18 21.43 18 11.86 18 2 C12.72 2 7.44 2 2 2 C2 27.74 2 53.48 2 80 C7.28 80 12.56 80 18 80 C18 69.11 18 58.22 18 47 C18.33 47 18.66 47 19 47 C19 58.55 19 70.1 19 82 C12.73 82 6.46 82 0 82 C0 54.94 0 27.88 0 0 Z " fill="#38B09D" transform="translate(291,677)"/>
<path d="M0 0 C2 1.625 2 1.625 3 4 C3 6.31 3 8.62 3 11 C-2.28 11 -7.56 11 -13 11 C-11.46687233 15.31608796 -11.46687233 15.31608796 -9 19 C-5.05163095 19.2632246 -2.39620731 19.08997373 1 17 C1 18.65 1 20.3 1 22 C-2.68000183 24.45333455 -6.72647768 24.8479211 -11 24 C-14.21954645 21.46546343 -15.70432435 19.88702695 -17 16 C-17.32527399 10.14506826 -16.94169822 6.25487535 -13.0625 1.75 C-8.9806151 -1.71341749 -4.91180415 -1.29958152 0 0 Z " fill="#979797" transform="translate(440,830)"/>
<path d="M0 0 C0.66 0 1.32 0 2 0 C2.14695312 1.05574219 2.14695312 1.05574219 2.296875 2.1328125 C3.3687117 9.21063074 5.01213394 15.92662839 7.09765625 22.7734375 C8 26 8 26 9 32 C3.39 32 -2.22 32 -8 32 C-6.74588453 23.3257013 -4.70145042 15.32578162 -2 7 C-1.31083096 4.67214012 -0.65257993 2.33841141 0 0 Z " fill="#F1F4FA" transform="translate(413,515)"/>
<path d="M0 0 C0.71208115 -0.00807175 1.42416229 -0.01614349 2.15782166 -0.02445984 C3.67183994 -0.0383226 5.18588977 -0.04903491 6.69995117 -0.05688477 C8.99395282 -0.07397006 11.28646441 -0.11781583 13.58007812 -0.16210938 C21.23607761 -0.24162039 27.39939521 -0.18227972 33.96484375 4.23828125 C33.30484375 4.56828125 32.64484375 4.89828125 31.96484375 5.23828125 C29.48984375 4.24828125 29.48984375 4.24828125 26.96484375 3.23828125 C16.07484375 2.90828125 5.18484375 2.57828125 -6.03515625 2.23828125 C-6.03515625 28.96828125 -6.03515625 55.69828125 -6.03515625 83.23828125 C-0.09515625 83.23828125 5.84484375 83.23828125 11.96484375 83.23828125 C11.96484375 73.66828125 11.96484375 64.09828125 11.96484375 54.23828125 C12.29484375 54.23828125 12.62484375 54.23828125 12.96484375 54.23828125 C12.96484375 64.13828125 12.96484375 74.03828125 12.96484375 84.23828125 C9.68546875 84.25890625 6.40609375 84.27953125 3.02734375 84.30078125 C1.99230713 84.30988525 0.95727051 84.31898926 -0.10913086 84.32836914 C-0.91874268 84.3308667 -1.72835449 84.33336426 -2.5625 84.3359375 C-3.39515381 84.34117432 -4.22780762 84.34641113 -5.08569336 84.35180664 C-7.03515625 84.23828125 -7.03515625 84.23828125 -8.03515625 83.23828125 C-8.13553356 80.68776651 -8.17133112 78.16430946 -8.16455078 75.61328125 C-8.1663031 74.81494873 -8.16805542 74.01661621 -8.16986084 73.1940918 C-8.17427992 70.54213315 -8.17134117 67.89024063 -8.16796875 65.23828125 C-8.16864177 63.4036457 -8.16961178 61.56901024 -8.17086792 59.734375 C-8.17234497 55.88410597 -8.17019011 52.03386009 -8.16552734 48.18359375 C-8.15983005 43.23671628 -8.16310902 38.28989306 -8.16909981 33.34301758 C-8.17270523 29.5530557 -8.17156692 25.76310679 -8.16897202 21.97314453 C-8.16830269 20.1486002 -8.16913135 18.3240547 -8.17145157 16.49951172 C-8.17397779 13.95406964 -8.17013795 11.40871666 -8.16455078 8.86328125 C-8.16758713 7.72088989 -8.16758713 7.72088989 -8.17068481 6.55541992 C-8.14171381 -0.53254295 -6.47316646 0.06914175 0 0 Z " fill="#B3F0E8" transform="translate(509.03515625,674.76171875)"/>
<path d="M0 0 C2.29473647 2.29473647 2.36409153 3.07512904 2.875 6.1875 C3.94280055 12.09484821 5.55749171 17.81379379 7.1953125 23.58203125 C8 27 8 27 8 32 C2.72 32 -2.56 32 -8 32 C-7.43053695 25.04543253 -5.98969112 18.74016618 -4 12.0625 C-3.72671875 11.11826172 -3.4534375 10.17402344 -3.171875 9.20117188 C-1.16528614 2.33057229 -1.16528614 2.33057229 0 0 Z " fill="#EFF2F9" transform="translate(756,515)"/>
<path d="M0 0 C10.02272727 -0.47727273 10.02272727 -0.47727273 13.6875 1.3125 C15.87115129 5.78378597 15.79794596 10.14043723 15 15 C13.125 18.1875 13.125 18.1875 10 20 C6.7 20 3.4 20 0 20 C0 13.4 0 6.8 0 0 Z " fill="#F9FBFE" transform="translate(338,512)"/>
<path d="M0 0 C8.22222222 0 8.22222222 0 13 3 C15.69292224 7.03938336 15.77233523 10.25802776 15 15 C13.125 18.0625 13.125 18.0625 10 20 C6.7 20 3.4 20 0 20 C0 13.4 0 6.8 0 0 Z " fill="#F3F6FD" transform="translate(471,511)"/>
<path d="M0 0 C8.25 0 16.5 0 25 0 C24.67 1.32 24.34 2.64 24 4 C20.7 4 17.4 4 14 4 C13.87882812 5.13695312 13.75765625 6.27390625 13.6328125 7.4453125 C12.6012335 16.9952018 11.4355311 26.50106017 10 36 C8.35 36 6.7 36 5 36 C5.66653084 28.76252805 6.5582662 21.57280969 7.5625 14.375 C7.70107422 13.37082031 7.83964844 12.36664062 7.98242188 11.33203125 C8.31995971 8.88779173 8.65974245 6.4438624 9 4 C5.7 4 2.4 4 -1 4 C-0.67 2.68 -0.34 1.36 0 0 Z " fill="#989898" transform="translate(315,818)"/>
<path d="M0 0 C12.21 0 24.42 0 37 0 C37 3.3 37 6.6 37 10 C33.04 10 29.08 10 25 10 C25 24.85 25 39.7 25 55 C20.71 55 16.42 55 12 55 C12 40.15 12 25.3 12 10 C8.04 10 4.08 10 0 10 C0 6.7 0 3.4 0 0 Z M1 1 C1 3.31 1 5.62 1 8 C4.96 8.33 8.92 8.66 13 9 C13.33 23.85 13.66 38.7 14 54 C17.3 54 20.6 54 24 54 C24.33 39.15 24.66 24.3 25 9 C28.63 8.67 32.26 8.34 36 8 C36 5.69 36 3.38 36 1 C24.45 1 12.9 1 1 1 Z " fill="#33B4E4" transform="translate(515,601)"/>
<path d="M0 0 C27 0 27 0 30 2 C20.76 2 11.52 2 2 2 C2 28.4 2 54.8 2 82 C9.59 82 17.18 82 25 82 C25 82.33 25 82.66 25 83 C16.75 83 8.5 83 0 83 C0 55.61 0 28.22 0 0 Z " fill="#3B4D91" transform="translate(589,497)"/>
<path d="M0 0 C26 0 26 0 34 4 C33.67 4.66 33.34 5.32 33 6 C31.35 5.34 29.7 4.68 28 4 C28 3.34 28 2.68 28 2 C19.42 2 10.84 2 2 2 C2 19.16 2 36.32 2 54 C4.97 54 7.94 54 11 54 C11 47.07 11 40.14 11 33 C11.66 33 12.32 33 13 33 C13 40.59 13 48.18 13 56 C8.71 56 4.42 56 0 56 C0 37.52 0 19.04 0 0 Z " fill="#35B7E8" transform="translate(559,601)"/>
<path d="M0 0 C4.62 0 9.24 0 14 0 C14.0677155 7.39731066 14.12278082 14.79445263 14.15543652 22.19200706 C14.17110785 25.62681954 14.19237214 29.06140941 14.22631836 32.49609375 C14.2650808 36.44268144 14.27969712 40.38917828 14.29296875 44.3359375 C14.30845261 45.57242035 14.32393646 46.8089032 14.33988953 48.08285522 C14.34011612 49.22388702 14.34034271 50.36491882 14.34057617 51.54052734 C14.34723801 52.548685 14.35389984 53.55684265 14.36076355 54.59555054 C14.24171158 55.38901886 14.12265961 56.18248718 14 57 C10.20821482 59.52785679 8.42272733 59.10251011 3.9375 58.75 C2.68839844 58.66234375 1.43929688 58.5746875 0.15234375 58.484375 C-3 58 -3 58 -5 56 C-5.56520003 53.34462628 -5.73788198 50.70855287 -6 48 C-4 51 -4 51 -3 56 C1.95 56 6.9 56 12 56 C12 37.85 12 19.7 12 1 C8.37 1 4.74 1 1 1 C1 13.54 1 26.08 1 39 C-1.1385485 36.8614515 -1.42655063 35.86724686 -2 33 C-1.34 33 -0.68 33 0 33 C0 22.11 0 11.22 0 0 Z " fill="#C6F4FE" transform="translate(496,600)"/>
<path d="M0 0 C0.66 0.33 1.32 0.66 2 1 C2 2.65 2 4.3 2 6 C1.46375 5.690625 0.9275 5.38125 0.375 5.0625 C-2.3984957 3.82172561 -5.00042837 3.4090325 -8 3 C-7.95231597 4.87880872 -7.95231597 4.87880872 -7 7 C-5.03277992 8.38123963 -3.03131672 9.71488126 -1 11 C1.33043558 14.49565336 1.58763244 15.8865729 1 20 C-1 22.4375 -1 22.4375 -4 24 C-8.24430581 24.1899203 -11.43202315 23.37865124 -15 21 C-14.67 19.35 -14.34 17.7 -14 16 C-13.2575 16.495 -12.515 16.99 -11.75 17.5 C-8.93681812 19.31923475 -8.93681812 19.31923475 -5 19 C-4.96747064 16.70808151 -4.96747064 16.70808151 -6 14 C-7.6385398 12.49252466 -7.6385398 12.49252466 -9.5625 11.0625 C-12.90942029 8.38496377 -12.90942029 8.38496377 -13.75 4.8125 C-13 2 -13 2 -11 0.0625 C-6.85574036 -1.40525862 -4.30579541 -0.84704172 0 0 Z " fill="#989898" transform="translate(642,830)"/>
<path d="M0 0 C0 1.65 0 3.3 0 5 C-0.53625 4.690625 -1.0725 4.38125 -1.625 4.0625 C-4.3984957 2.82172561 -7.00042837 2.4090325 -10 2 C-9.95231597 3.87880872 -9.95231597 3.87880872 -9 6 C-7.03277992 7.38123963 -5.03131672 8.71488126 -3 10 C-0.66956442 13.49565336 -0.41236756 14.8865729 -1 19 C-3 21.4375 -3 21.4375 -6 23 C-10.24430581 23.1899203 -13.43202315 22.37865124 -17 20 C-16.67 18.35 -16.34 16.7 -16 15 C-15.2575 15.495 -14.515 15.99 -13.75 16.5 C-10.93681812 18.31923475 -10.93681812 18.31923475 -7 18 C-6.96747064 15.70808151 -6.96747064 15.70808151 -8 13 C-9.17133703 11.99678428 -10.38503194 11.04203404 -11.625 10.125 C-13.52734375 8.6171875 -13.52734375 8.6171875 -15 7 C-15.1875 3.25 -15.1875 3.25 -14 0 C-10.46705447 -3.3916277 -4.03527054 -2.01763527 0 0 Z " fill="#989898" transform="translate(552,831)"/>
<path d="M0 0 C2.36039861 1.77029896 2.82752778 3.04356316 3.34375 5.90625 C3.63315276 9.78424695 3.43214585 11.46309152 0.9375 14.5625 C-2.93353457 16.45683606 -4.91390147 16.28636435 -9 15 C-11 12.875 -11 12.875 -12 10 C-11.88214109 6.58209158 -11.58916681 4.07436301 -9.9375 1.0625 C-6.73600882 -0.69315645 -3.55036553 -0.64350375 0 0 Z " fill="#0F31AD" transform="translate(497,350)"/>
<path d="M0 0 C3.26600019 2.46764459 4.78253791 3.95618195 5.625 8 C4.77618008 12.0743356 3.32274404 13.54405875 0 16 C-3.65126535 16.67064058 -5.23686002 16.48198314 -8.375 14.5 C-10.34789171 11.46478198 -10.63971021 9.47802406 -10.453125 5.90625 C-10 4 -10 4 -7.8125 1.5 C-4.72015 -0.14925334 -3.4172248 -0.76887558 0 0 Z " fill="#1335AE" transform="translate(416,295)"/>
<path d="M0 0 C4.99268902 1.47931526 4.99268902 1.47931526 6.375 4 C6.76067013 8.04953637 6.87738217 10.74404458 5.375 14.5 C2.77807462 16.44769403 0.51998881 16.62031248 -2.68359375 16.44921875 C-4.625 16 -4.625 16 -7.125 13.875 C-8.90301176 10.46714413 -9.33460213 8.78454468 -8.625 5 C-5.91953265 1.14675862 -4.77773264 0 0 0 Z " fill="#1536AE" transform="translate(440.625,295)"/>
<path d="M0 0 C3.32274404 2.45594125 4.77618008 3.9256644 5.625 8 C4.77618008 12.0743356 3.32274404 13.54405875 0 16 C-3.0625 16.625 -3.0625 16.625 -6 16 C-9.16196359 13.25408425 -9.91691332 11.59199258 -10.5 7.4375 C-10 4 -10 4 -8.375 1.5625 C-5.24316508 -0.49791771 -3.68455227 -0.6767545 0 0 Z " fill="#1637AC" transform="translate(522,350)"/>
<path d="M0 0 C3.32274404 2.45594125 4.77618008 3.9256644 5.625 8 C4.77618008 12.0743356 3.32274404 13.54405875 0 16 C-3.0625 16.625 -3.0625 16.625 -6 16 C-9.16196359 13.25408425 -9.91691332 11.59199258 -10.5 7.4375 C-10 4 -10 4 -8.375 1.5625 C-5.24316508 -0.49791771 -3.68455227 -0.6767545 0 0 Z " fill="#1A3BAD" transform="translate(469,350)"/>
<path d="M0 0 C3.36344489 2.48602449 4.80057749 3.91425523 5.5625 8.0625 C4.86355315 11.71255579 4.01797955 12.85564611 1 15 C-1.9375 16.0625 -1.9375 16.0625 -5 16 C-7.875 14 -7.875 14 -10 11 C-10.63534983 6.97611774 -10.64970619 4.97455929 -8.375 1.5625 C-5.24316508 -0.49791771 -3.68455227 -0.6767545 0 0 Z " fill="#1637AB" transform="translate(469,186)"/>
<path d="M0 0 C3.32672355 0.76770543 4.44694778 1.78994513 6.4375 4.5625 C7.5 8 7.5 8 7.4375 11.5625 C5.00677503 15.02444162 3.55928713 16.35645747 -0.625 17.125 C-3.5625 16.5625 -3.5625 16.5625 -5.9375 15 C-8.21220619 11.58794071 -8.19784983 9.58638226 -7.5625 5.5625 C-5.25052361 2.45784599 -3.81966828 0.83846377 0 0 Z " fill="#1435AD" transform="translate(572.5625,294.4375)"/>
<path d="M0 0 C3.36344489 2.48602449 4.80057749 3.91425523 5.5625 8.0625 C4.86355315 11.71255579 4.01797955 12.85564611 1 15 C-1.9375 16.0625 -1.9375 16.0625 -5 16 C-7.875 14 -7.875 14 -10 11 C-10.63534983 6.97611774 -10.64970619 4.97455929 -8.375 1.5625 C-5.24316508 -0.49791771 -3.68455227 -0.6767545 0 0 Z " fill="#1838AB" transform="translate(522,186)"/>
<path d="M0 0 C3.4375 0.9375 3.4375 0.9375 5.375 2 C7.13116901 5.20242585 7.05776592 8.43440726 6.4375 11.9375 C4.875 14.4375 4.875 14.4375 2.4375 15.9375 C-1.0625 16.5625 -1.0625 16.5625 -4.5625 15.9375 C-7.49589302 12.85743733 -8.5625 11.09047493 -8.5625 6.8125 C-6.84948061 1.88756926 -5.39599991 -0.09466667 0 0 Z " fill="#1738AC" transform="translate(546.5625,295.0625)"/>
<path d="M0 0 C3.70864386 0.92716097 5.20985284 2.6150923 7.5 5.625 C8.125 8.625 8.125 8.625 7.5 11.625 C5.01877621 14.98194984 3.55634831 16.40941871 -0.5625 17.25 C-3.5 16.625 -3.5 16.625 -5.875 14.5 C-7.80285153 11.08918575 -8.22222637 9.47687398 -7.5 5.625 C-5.20985284 2.6150923 -3.70864386 0.92716097 0 0 Z " fill="#1435AD" transform="translate(519.5,294.375)"/>
<path d="M0 0 C3.26600019 2.46764459 4.78253791 3.95618195 5.625 8 C4.77618008 12.0743356 3.32274404 13.54405875 0 16 C-3.0625 16.625 -3.0625 16.625 -6 16 C-8.4375 14 -8.4375 14 -10 11 C-10.22775618 8.1447152 -9.91610276 5.71307356 -9 3 C-6.34842824 -0.03036773 -3.94348189 -0.76945988 0 0 Z " fill="#193AAC" transform="translate(469,295)"/>
<path d="M0 0 C2.9375 2.0625 2.9375 2.0625 5 5 C5.1519185 9.32967714 4.67311337 11.23072758 1.8125 14.5 C-1 16 -1 16 -4.125 16 C-7 15 -7 15 -8.875 13.375 C-10.46134558 10.02604821 -10.45746657 7.65973254 -10 4 C-7.27238925 -0.09141613 -4.79563536 -0.88083098 0 0 Z " fill="#0E31AD" transform="translate(575,268)"/>
<path d="M0 0 C2.4375 1 2.4375 1 4 3 C4.56153595 7.42209561 4.79893062 9.72171101 2.4375 13.5 C-0.97532932 15.60020266 -3.06688873 15.63210717 -7 15 C-9.96135546 12.41830549 -10.86756104 10.81118865 -11.5 6.9375 C-11 4 -11 4 -9.4375 1.625 C-6.08716465 -0.6085569 -3.9518567 -0.49398209 0 0 Z " fill="#1939AC" transform="translate(443,241)"/>
<path d="M0 0 C3.36046048 1.21548571 4.8814778 2.13662225 6.9375 5.0625 C7.5 8 7.5 8 6.9375 11.0625 C4.45627621 14.41944984 2.99384831 15.84691871 -1.125 16.6875 C-4.0625 16.0625 -4.0625 16.0625 -6.4375 13.9375 C-8.36535153 10.52668575 -8.78472637 8.91437398 -8.0625 5.0625 C-5.55061375 1.59018665 -4.37084277 0.08920087 0 0 Z " fill="#1737AB" transform="translate(520.0625,212.9375)"/>
<path d="M0 0 C3.01797955 2.14435389 3.86355315 3.28744421 4.5625 6.9375 C3.80057749 11.08574477 2.36344489 12.51397551 -1 15 C-4.0625 15.625 -4.0625 15.625 -7 15 C-9.4375 13 -9.4375 13 -11 10 C-11.31553104 6.04431818 -10.84558932 3.03349806 -8.3125 -0.0625 C-5.08950168 -1.36912094 -3.29957076 -1.03111586 0 0 Z " fill="#1838AB" transform="translate(470,214)"/>
<path d="M0 0 C4.99268902 1.47931526 4.99268902 1.47931526 6.375 4 C6.76774738 7.09288558 7.01077985 9.04689172 6.375 12 C3.99042223 14.72523173 2.36966605 15.75133349 -1.125 16.625 C-5.07613564 15.63721609 -6.43823037 13.31139401 -8.625 10 C-9.25 7.4375 -9.25 7.4375 -8.625 5 C-5.89824906 1.19907445 -4.75672794 0 0 0 Z " fill="#1536AC" transform="translate(493.625,186)"/>
<path d="M0 0 C1.94140625 0.3828125 1.94140625 0.3828125 4.44140625 2.0078125 C6.42338939 5.14595248 6.61204683 6.73154715 5.94140625 10.3828125 C3.87890625 13.2578125 3.87890625 13.2578125 0.94140625 15.3828125 C-2.55743554 15.86541137 -4.82801731 16.01794873 -7.99609375 14.3828125 C-9.71574552 11.14582093 -9.5560121 7.91448277 -9.05859375 4.3828125 C-7.28476626 -0.05175621 -4.60177684 -0.25424181 0 0 Z " fill="#0F32AF" transform="translate(468.05859375,322.6171875)"/>
<path d="M0 0 C2.4375 1.5625 2.4375 1.5625 4 4 C4.56288002 7.94016013 4.60396028 10.05782196 2.4375 13.4375 C-0.94217804 15.60396028 -3.05983987 15.56288002 -7 15 C-9.4375 13.4375 -9.4375 13.4375 -11 11 C-11.56288002 7.05983987 -11.60396028 4.94217804 -9.4375 1.5625 C-6.05782196 -0.60396028 -3.94016013 -0.56288002 0 0 Z " fill="#1838AC" transform="translate(417,241)"/>
<path d="M0 0 C3.36344489 2.48602449 4.80057749 3.91425523 5.5625 8.0625 C5 11 5 11 3.5 13.375 C-0.26897129 15.82483134 -2.54334931 15.5659239 -7 15 C-9.91781637 12.72045596 -9.97820387 11.17436907 -10.4375 7.5 C-10 4 -10 4 -8.375 1.5625 C-5.24316508 -0.49791771 -3.68455227 -0.6767545 0 0 Z " fill="#1435AC" transform="translate(416,268)"/>
<path d="M0 0 C2.4375 1.5625 2.4375 1.5625 4 4 C4.56288002 7.94016013 4.60396028 10.05782196 2.4375 13.4375 C-0.96719488 15.61999672 -3.03430012 15.63734462 -7 15 C-9.5 12.9375 -9.5 12.9375 -11 10 C-10.93977486 6.50694211 -10.63658168 4.09633511 -8.875 1.0625 C-5.81547541 -0.6712306 -3.43182475 -0.42145216 0 0 Z " fill="#1636AA" transform="translate(549,241)"/>
<path d="M0 0 C2.4375 1.5625 2.4375 1.5625 4 4 C4.56288002 7.94016013 4.60396028 10.05782196 2.4375 13.4375 C-0.94217804 15.60396028 -3.05983987 15.56288002 -7 15 C-9.4375 13.4375 -9.4375 13.4375 -11 11 C-11.56288002 7.05983987 -11.60396028 4.94217804 -9.4375 1.5625 C-6.05782196 -0.60396028 -3.94016013 -0.56288002 0 0 Z " fill="#1334AA" transform="translate(470,241)"/>
<path d="M0 0 C1.9453125 0.4453125 1.9453125 0.4453125 4.5078125 2.5078125 C6.39142221 6.35692799 6.1529565 8.36951401 4.9453125 12.4453125 C2.56055629 15.28867567 1.09116601 15.42740067 -2.6171875 15.8828125 C-6.0546875 15.4453125 -6.0546875 15.4453125 -7.9921875 13.8828125 C-9.45328171 10.53089049 -9.442611 8.06593183 -9.0546875 4.4453125 C-7.26064318 0.07232946 -4.5785358 -0.25342449 0 0 Z " fill="#1234AC" transform="translate(521.0546875,322.5546875)"/>
<path d="M0 0 C2.5 2.0625 2.5 2.0625 4 5 C3.93977486 8.49305789 3.63658168 10.90366489 1.875 13.9375 C-1.18452459 15.6712306 -3.56817525 15.42145216 -7 15 C-9.4375 13.4375 -9.4375 13.4375 -11 11 C-11.56288002 7.05983987 -11.60396028 4.94217804 -9.4375 1.5625 C-6.03280512 -0.61999672 -3.96569988 -0.63734462 0 0 Z " fill="#1536AA" transform="translate(576,241)"/>
<path d="M0 0 C2.4375 1.625 2.4375 1.625 4 4 C4.64250722 7.77472994 4.26836859 9.50620179 2.4375 12.875 C0 15 0 15 -3.5 15.5625 C-7 15 -7 15 -9.4375 13.4375 C-11.60396028 10.05782196 -11.56288002 7.94016013 -11 4 C-8.11188513 -0.5054592 -5.11821063 -0.73117295 0 0 Z " fill="#1032AB" transform="translate(523,241)"/>
<path d="M0 0 C1.65 0 3.3 0 5 0 C4.67 1.65 4.34 3.3 4 5 C5.32 5 6.64 5 8 5 C8 6.32 8 7.64 8 9 C6.35 9 4.7 9 3 9 C1.96409801 14.05002222 1.89748328 18.87416389 2 24 C3.65 24.33 5.3 24.66 7 25 C7 25.99 7 26.98 7 28 C0.77319588 29.31720856 0.77319588 29.31720856 -2.4375 28 C-4.83642771 24.92937253 -4.36600724 22.843076 -4 19 C-3.42287016 15.64482143 -2.74838394 12.32095375 -2 9 C-2.99 9 -3.98 9 -5 9 C-5 7.68 -5 6.36 -5 5 C-3.68 5 -2.36 5 -1 5 C-0.67 3.35 -0.34 1.7 0 0 Z " fill="#969696" transform="translate(688,825)"/>
<path d="M0 0 C2.86724686 0.57344937 3.8614515 0.8614515 6 3 C6.22660954 5.48681895 6.32434998 7.82637349 6.3125 10.3125 C6.32925781 11.62863281 6.34601562 12.94476563 6.36328125 14.30078125 C5.99129708 18.08862009 5.22255668 19.96817466 3 23 C1.125 22.75 1.125 22.75 -1 22 C-3.41379125 18.5105895 -3.299322 15.14667608 -3.3125 11 C-3.32925781 9.783125 -3.34601562 8.56625 -3.36328125 7.3125 C-2.98279195 3.84309223 -2.362488 2.49339103 0 0 Z " fill="#F5F6FC" transform="translate(588,413)"/>
<path d="M0 0 C1.65 0 3.3 0 5 0 C3.6869903 12.06424203 1.97153892 24.02618693 0 36 C-1.65 36 -3.3 36 -5 36 C-4.43902934 27.65005939 -3.37718967 19.4913331 -1.9375 11.25 C-1.75123047 10.15945313 -1.56496094 9.06890625 -1.37304688 7.9453125 C-0.91988563 5.29606214 -0.46215796 2.64769297 0 0 Z " fill="#9B9B9B" transform="translate(728,818)"/>
<path d="M0 0 C1.65 0 3.3 0 5 0 C3.6869903 12.06424203 1.97153892 24.02618693 0 36 C-1.65 36 -3.3 36 -5 36 C-4.43902934 27.65005939 -3.37718967 19.4913331 -1.9375 11.25 C-1.75123047 10.15945313 -1.56496094 9.06890625 -1.37304688 7.9453125 C-0.91988563 5.29606214 -0.46215796 2.64769297 0 0 Z " fill="#9B9B9B" transform="translate(499,818)"/>
<path d="M0 0 C4.95 0 9.9 0 15 0 C15 0.99 15 1.98 15 3 C14.67 2.67 14.34 2.34 14 2 C9.71 1.67 5.42 1.34 1 1 C1 18.49 1 35.98 1 54 C3.64 54 6.28 54 9 54 C9 41.79 9 29.58 9 17 C9.99 17 10.98 17 12 17 C11.67 29.87 11.34 42.74 11 56 C7.37 56 3.74 56 0 56 C0 37.52 0 19.04 0 0 Z " fill="#3BB7E5" transform="translate(466,601)"/>
<path d="M0 0 C4.33420402 0.36118367 5.8748258 1.08881984 8.75 4.3125 C9.0625 7.0625 9.0625 7.0625 8.75 9.3125 C7.43 9.3125 6.11 9.3125 4.75 9.3125 C4.09 7.3325 3.43 5.3525 2.75 3.3125 C0.31282742 3.58284634 0.31282742 3.58284634 -2.25 4.3125 C-4.73421811 8.03882716 -4.67240263 10.99911935 -4.25 15.3125 C-3.35202887 18.68071272 -3.35202887 18.68071272 -2.25 21.3125 C2.50404012 21.80794197 2.50404012 21.80794197 6.5625 19.8125 C6.954375 19.3175 7.34625 18.8225 7.75 18.3125 C8.41 18.3125 9.07 18.3125 9.75 18.3125 C8.38016497 21.47365776 7.7609362 22.3052092 4.75 24.3125 C1.7330912 24.65311873 -0.34407815 24.88462107 -3.25 24.3125 C-6.67616114 21.54241227 -9.02138419 19.34064885 -9.5234375 14.88671875 C-9.80028054 7.01798787 -9.80028054 7.01798787 -6.8125 3.1875 C-5.966875 2.56875 -5.12125 1.95 -4.25 1.3125 C-3.25 0.3125 -3.25 0.3125 0 0 Z " fill="#3E4191" transform="translate(495.25,413.6875)"/>
<path d="M0 0 C3.0625 0.25 3.0625 0.25 6 1 C7.59961166 4.19922332 7.35994169 7.52056367 7 11 C5.875 13.9375 5.875 13.9375 4 16 C1 17 1 17 -2 17 C-3.875 16 -3.875 16 -5 14 C-5.55699256 8.98706697 -5.0072249 6.04818737 -2 2 C-1.34 1.34 -0.68 0.68 0 0 Z " fill="#F8F8F8" transform="translate(614,833)"/>
<path d="M0 0 C3.0625 0.25 3.0625 0.25 6 1 C7.59961166 4.19922332 7.35994169 7.52056367 7 11 C5.875 13.9375 5.875 13.9375 4 16 C1 17 1 17 -2 17 C-3.875 16 -3.875 16 -5 14 C-5.55699256 8.98706697 -5.0072249 6.04818737 -2 2 C-1.34 1.34 -0.68 0.68 0 0 Z " fill="#F8F8F8" transform="translate(455,833)"/>
<path d="M0 0 C3.4375 0.25 3.4375 0.25 7 1 C9.11890181 4.17835272 9.5434002 6.19479215 9.4453125 9.9921875 C9 12 9 12 6.375 15 C2.71573338 17.16845429 1.12590664 17.18491458 -3 17 C-2.69268013 14.35346869 -2.37940678 11.707885 -2.0625 9.0625 C-1.97548828 8.30775391 -1.88847656 7.55300781 -1.79882812 6.77539062 C-1.11328125 1.11328125 -1.11328125 1.11328125 0 0 Z " fill="#F9F9F9" transform="translate(655,833)"/>
<path d="M0 0 C3.4375 0.25 3.4375 0.25 7 1 C9.11890181 4.17835272 9.5434002 6.19479215 9.4453125 9.9921875 C9 12 9 12 6.375 15 C2.71573338 17.16845429 1.12590664 17.18491458 -3 17 C-2.69268013 14.35346869 -2.37940678 11.707885 -2.0625 9.0625 C-1.97548828 8.30775391 -1.88847656 7.55300781 -1.79882812 6.77539062 C-1.11328125 1.11328125 -1.11328125 1.11328125 0 0 Z " fill="#F9F9F9" transform="translate(478,833)"/>
<path d="M0 0 C3.63 0 7.26 0 11 0 C11 18.15 11 36.3 11 55 C6.05 55 1.1 55 -4 55 C-3.67 54.01 -3.34 53.02 -3 52 C-3 52.66 -3 53.32 -3 54 C1.29 54 5.58 54 10 54 C10 36.51 10 19.02 10 1 C7.36 1 4.72 1 2 1 C2 13.54 2 26.08 2 39 C1.01 39 0.02 39 -1 39 C-0.67 26.13 -0.34 13.26 0 0 Z " fill="#36B7E8" transform="translate(497,601)"/>
<path d="M0 0 C0.17726741 5.14075497 0.16371219 9.21705726 -2 14 C-5 16 -5 16 -7.5625 15.8125 C-10 15 -10 15 -12 12 C-12 8.65410167 -11.89408527 6.13458289 -9.765625 3.43359375 C-6.59341237 0.56388594 -4.2517199 -0.62525293 0 0 Z " fill="#F9F9F9" transform="translate(715,834)"/>
<path d="M0 0 C10.23 0 20.46 0 31 0 C31 2.97 31 5.94 31 9 C24.73 9 18.46 9 12 9 C12 8.67 12 8.34 12 8 C19.92 7.505 19.92 7.505 28 7 C28.33 5.35 28.66 3.7 29 2 C19.76 2 10.52 2 1 2 C1 19.16 1 36.32 1 54 C0.67 54 0.34 54 0 54 C0 36.18 0 18.36 0 0 Z " fill="#1EB3EA" transform="translate(425,601)"/>
<path d="M0 0 C0.66 0 1.32 0 2 0 C2.67617524 2.37265061 3.34108226 4.74755355 4 7.125 C4.19078125 7.79015625 4.3815625 8.4553125 4.578125 9.140625 C5.69208455 13.1986205 6.20950232 16.79685974 6 21 C2.37 21 -1.26 21 -5 21 C-3.7991348 13.7948088 -2.25989184 6.94540092 0 0 Z " fill="#DEFAFE" transform="translate(626,613)"/>
<path d="M0 0 C0.99 0.33 1.98 0.66 3 1 C3 8.92 3 16.84 3 25 C3.66 25 4.32 25 5 25 C5 25.66 5 26.32 5 27 C2.03 27 -0.94 27 -4 27 C-4 26.34 -4 25.68 -4 25 C-3.34 25 -2.68 25 -2 25 C-2 18.4 -2 11.8 -2 5 C-2.66 5 -3.32 5 -4 5 C-4 4.34 -4 3.68 -4 3 C-2.68 2.67 -1.36 2.34 0 2 C0 1.34 0 0.68 0 0 Z " fill="#4B4E99" transform="translate(543,411)"/>
<path d="M0 0 C2.4375 0.1875 2.4375 0.1875 3.4375 1.1875 C3.51069621 3.88404854 3.52992537 6.55441458 3.5 9.25 C3.49548828 10.00861328 3.49097656 10.76722656 3.48632812 11.54882812 C3.4745068 13.42841871 3.45657078 15.30796899 3.4375 17.1875 C2.4475 17.5175 1.4575 17.8475 0.4375 18.1875 C0.1075 18.8475 -0.2225 19.5075 -0.5625 20.1875 C-1.2225 20.1875 -1.8825 20.1875 -2.5625 20.1875 C-4.98707025 16.55064463 -4.86018407 13.82517221 -4.8125 9.625 C-4.82023437 8.93986328 -4.82796875 8.25472656 -4.8359375 7.54882812 C-4.80768609 0.35178191 -4.80768609 0.35178191 0 0 Z " fill="#EDEDF8" transform="translate(474.5625,417.8125)"/>
<path d="M0 0 C7 0 7 0 9.4375 1 C11.55870152 3.71513795 11.51337798 5.74916293 11.30859375 9.125 C11 11 11 11 10 13 C6.72032242 14.63983879 3.62861311 14.17845638 0 14 C0 9.38 0 4.76 0 0 Z " fill="#ECFDFE" transform="translate(572,610)"/>
<path d="M0 0 C3.5625 0.3125 3.5625 0.3125 5.5 1.4375 C7.09240283 4.24762264 7.01569325 6.14014724 6.5625 9.3125 C4.58363939 12.09756308 3.40317767 13.12334752 0.0625 13.875 C-2.4375 13.3125 -2.4375 13.3125 -4.8125 11.1875 C-6.4375 8.3125 -6.4375 8.3125 -6.3125 5.125 C-5.03605468 1.02214003 -4.32440699 0.39312791 0 0 Z " fill="#19B5EF" transform="translate(598.4375,296.6875)"/>
<path d="M0 0 C3.5625 0.3125 3.5625 0.3125 5.5 1.4375 C7.09240283 4.24762264 7.01569325 6.14014724 6.5625 9.3125 C4.58363939 12.09756308 3.40317767 13.12334752 0.0625 13.875 C-2.4375 13.3125 -2.4375 13.3125 -4.8125 11.1875 C-6.4375 8.3125 -6.4375 8.3125 -6.3125 5.125 C-5.03605468 1.02214003 -4.32440699 0.39312791 0 0 Z " fill="#03B4F6" transform="translate(545.4375,214.6875)"/>
<path d="M0 0 C2.31282587 3.46923881 2.42478586 4.92205575 2 9 C0.875 10.875 0.875 10.875 -1 12 C-4.65259739 12.54400387 -6.3433886 12.43774093 -9.4375 10.375 C-11 8 -11 8 -10.9375 4.9375 C-8.90323234 -1.43653868 -6.38029706 -1.62407561 0 0 Z " fill="#17B4EF" transform="translate(603,270)"/>
<path d="M0 0 C2.31282587 3.46923881 2.42478586 4.92205575 2 9 C0.9375 10.875 0.9375 10.875 -1 12 C-4.5 12.4375 -4.5 12.4375 -8 12 C-10 10.375 -10 10.375 -11 8 C-10.92897215 4.5196355 -10.61415498 2.70514091 -8.3125 0.0625 C-5.13778084 -1.39615475 -3.30121799 -1.00471852 0 0 Z " fill="#15B4F0" transform="translate(550,188)"/>
<path d="M0 0 C3.5625 0.3125 3.5625 0.3125 5.5 1.4375 C7.09240283 4.24762264 7.01569325 6.14014724 6.5625 9.3125 C4.9375 11.75 4.9375 11.75 2.5625 13.3125 C-0.95109068 13.3125 -2.71278132 12.9437066 -5.375 10.625 C-6.82300221 7.47346578 -6.367426 5.60300737 -5.4375 2.3125 C-3.4375 0.3125 -3.4375 0.3125 0 0 Z " fill="#16B5F0" transform="translate(545.4375,351.6875)"/>
<path d="M0 0 C1.875 1.0625 1.875 1.0625 3 3 C3.63316583 8.90954774 3.63316583 8.90954774 1.875 11.9375 C-0.88980433 13.50422245 -2.88188517 13.38976435 -6 13 C-7.875 11.9375 -7.875 11.9375 -9 10 C-9.63316583 4.09045226 -9.63316583 4.09045226 -7.875 1.0625 C-5.11019567 -0.50422245 -3.11811483 -0.38976435 0 0 Z " fill="#0FB3F1" transform="translate(549,324)"/>
<path d="M0 0 C1.875 1.0625 1.875 1.0625 3 3 C3.4375 6.5 3.4375 6.5 3 10 C0.89172636 12.42061048 -0.40345478 12.9127007 -3.5625 13.375 C-6 13 -6 13 -7.8125 11.9375 C-9.67036623 8.90624457 -9.37133265 6.46577141 -9 3 C-6.84332735 -0.71426957 -4.0099826 -0.50124783 0 0 Z " fill="#13B3EF" transform="translate(602,242)"/>
<path d="M0 0 C8 0 8 0 11 2 C8.03 2 5.06 2 2 2 C2 19.49 2 36.98 2 55 C1.34 55 0.68 55 0 55 C0 36.85 0 18.7 0 0 Z " fill="#C7D1E9" transform="translate(606,511)"/>
<path d="M0 0 C3.29714793 0.32971479 4.6226839 0.6226839 7 3 C7.31884766 4.87939453 7.31884766 4.87939453 7.4140625 7.1328125 C7.45273437 7.93847656 7.49140625 8.74414062 7.53125 9.57421875 C7.5621875 10.41597656 7.593125 11.25773437 7.625 12.125 C7.66367187 12.97449219 7.70234375 13.82398438 7.7421875 14.69921875 C7.83656494 16.79911684 7.91937586 18.89952891 8 21 C8.66 21.33 9.32 21.66 10 22 C10 22.66 10 23.32 10 24 C6.7 24 3.4 24 0 24 C0 23.34 0 22.68 0 22 C0.66 21.67 1.32 21.34 2 21 C2.10792837 18.39472895 2.18724878 15.79391689 2.25 13.1875 C2.28351563 12.44951172 2.31703125 11.71152344 2.3515625 10.95117188 C2.43898094 8.5154344 2.43898094 8.5154344 2 5 C0.14771642 2.93886639 0.14771642 2.93886639 -2 2 C-1.34 1.34 -0.68 0.68 0 0 Z " fill="#333590" transform="translate(475,414)"/>
<path d="M0 0 C1.65 0 3.3 0 5 0 C4.52087184 8.24430867 3.02214499 16.00044527 1 24 C-0.32 24 -1.64 24 -3 24 C-2.29563752 15.95543903 -1.18531495 7.98649105 0 0 Z " fill="#9A9A9A" transform="translate(674,830)"/>
<path d="M0 0 C6 0 6 0 7.875 1.0625 C9.66235303 4.14071911 9.43386742 6.52906068 9 10 C7.375 11.9375 7.375 11.9375 5 13 C3.02 13 1.04 13 -1 13 C-0.67 8.71 -0.34 4.42 0 0 Z " fill="#FBFBFB" transform="translate(408,822)"/>
<path d="M0 0 C2.5 -0.375 2.5 -0.375 5 0 C7.47342266 3.71013399 7.38503486 5.61060262 7 10 C5.5 12.4375 5.5 12.4375 4 14 C1.5625 13.625 1.5625 13.625 -1 13 C-2.5635348 9.87293041 -2.39958487 6.42017557 -2 3 C-1.34 2.01 -0.68 1.02 0 0 Z " fill="#F2F2FB" transform="translate(568,413)"/>
<path d="M0 0 C4.75 0.75 4.75 0.75 7 3 C7.35173852 6.79877599 7.52701444 9.14360153 5.5 12.4375 C5.005 12.953125 4.51 13.46875 4 14 C1.5625 13.625 1.5625 13.625 -1 13 C-2.5635348 9.87293041 -2.39958487 6.42017557 -2 3 C-1.34 2.01 -0.68 1.02 0 0 Z " fill="#F3F4FC" transform="translate(553,413)"/>
<path d="M0 0 C1.65 0 3.3 0 5 0 C5 7.59 5 15.18 5 23 C3.35 23 1.7 23 0 23 C0 15.41 0 7.82 0 0 Z " fill="#31348F" transform="translate(454,414)"/>
<path d="M0 0 C3.125 1.125 3.125 1.125 5 3 C5.3125 6.1875 5.3125 6.1875 5 9 C4.01 9 3.02 9 2 9 C1.5875 8.195625 1.175 7.39125 0.75 6.5625 C-0.84610632 3.62460451 -0.84610632 3.62460451 -4.5625 3.0625 C-5.696875 3.041875 -6.83125 3.02125 -8 3 C-9.95216435 4.95216435 -10.84826645 6.53199953 -12 9 C-12.33 8.01 -12.66 7.02 -13 6 C-13.33 7.65 -13.66 9.3 -14 11 C-14.66 10.67 -15.32 10.34 -16 10 C-16.375 7.8125 -16.375 7.8125 -16 5 C-11.36914435 -0.48390801 -6.96120814 -1.04244381 0 0 Z " fill="#4F5298" transform="translate(445,406)"/>
<path d="M0 0 C0.7425 0.2475 1.485 0.495 2.25 0.75 C2.5625 3.5 2.5625 3.5 2.25 6.75 C-0.30934031 9.52871234 -1.77280949 10.66313862 -5.5625 11 C-6.284375 10.9175 -7.00625 10.835 -7.75 10.75 C-7.45842276 6.95949594 -7.20454034 4.39934335 -5 1.25 C-2.75 -0.25 -2.75 -0.25 0 0 Z " fill="#EDEEFA" transform="translate(518.75,416.25)"/>
<path d="M0 0 C0.33 0 0.66 0 1 0 C1.04241723 2.33294775 1.04092937 4.66702567 1 7 C0.67 7.33 0.34 7.66 0 8 C-0.09967573 9.80638756 -0.13080538 11.61664686 -0.1328125 13.42578125 C-0.13410156 14.53244141 -0.13539063 15.63910156 -0.13671875 16.77929688 C-0.13285156 17.94525391 -0.12898438 19.11121094 -0.125 20.3125 C-0.12886719 21.46685547 -0.13273437 22.62121094 -0.13671875 23.81054688 C-0.13542969 24.92107422 -0.13414062 26.03160156 -0.1328125 27.17578125 C-0.13168457 28.19583252 -0.13055664 29.21588379 -0.12939453 30.2668457 C-0.01435801 32.69672101 0.38164378 34.66639064 1 37 C1.03888349 39.33300933 1.0448635 41.66709801 1 44 C-3.03640033 36.42897059 -3.34161216 28.43088292 -3.3125 20 C-3.33666992 18.60007812 -3.33666992 18.60007812 -3.36132812 17.171875 C-3.3656945 10.9192308 -2.36166079 5.79022396 0 0 Z " fill="#37B3A0" transform="translate(364,696)"/>
<path d="M0 0 C3.3 0 6.6 0 10 0 C10.66 0.66 11.32 1.32 12 2 C8.7 1.67 5.4 1.34 2 1 C2 7.93 2 14.86 2 22 C5.3 22 8.6 22 12 22 C11.34 22.66 10.68 23.32 10 24 C6.7 24 3.4 24 0 24 C0 16.08 0 8.16 0 0 Z " fill="#C5F9F2" transform="translate(521,691)"/>
<path d="M0 0 C3.29714793 0.32971479 4.6226839 0.6226839 7 3 C6.43181818 8.56818182 6.43181818 8.56818182 5 10 C2.5625 10.1875 2.5625 10.1875 0 10 C-2 8 -2 8 -2.25 5 C-2 2 -2 2 0 0 Z " fill="#25B1A7" transform="translate(623,298)"/>
<path d="M0 0 C2.53206678 1.26603339 2.67486071 2.16418084 3.7265625 4.74609375 C4.0359375 5.50083984 4.3453125 6.25558594 4.6640625 7.03320312 C4.98117187 7.82662109 5.29828125 8.62003906 5.625 9.4375 C5.94984375 10.22705078 6.2746875 11.01660156 6.609375 11.83007812 C9 17.72126116 9 17.72126116 9 20 C8.01 19.67 7.02 19.34 6 19 C4.68 15.37 3.36 11.74 2 8 C1.67 17.9 1.34 27.8 1 38 C0.67 38 0.34 38 0 38 C0 25.46 0 12.92 0 0 Z " fill="#D1FDFE" transform="translate(477,618)"/>
<path d="M0 0 C1.9375 0.75 1.9375 0.75 3.9375 2.75 C3.5625 5.875 3.5625 5.875 2.9375 8.75 C0.0625 9.375 0.0625 9.375 -3.0625 9.75 C-5.0625 7.75 -5.0625 7.75 -5.375 4.75 C-5.271875 3.76 -5.16875 2.77 -5.0625 1.75 C-2.0625 -0.25 -2.0625 -0.25 0 0 Z " fill="#1EAFA4" transform="translate(573.0625,216.25)"/>
<path d="M0 0 C3.125 0.375 3.125 0.375 6 1 C7.32841008 6.43440487 7.32841008 6.43440487 5.875 8.9375 C4 10 4 10 1.375 9.75 C-1 9 -1 9 -2 8 C-2.1875 5.0625 -2.1875 5.0625 -2 2 C-1.34 1.34 -0.68 0.68 0 0 Z " fill="#1FAEA4" transform="translate(570,189)"/>
<path d="M0 0 C1.2375 0.1546875 1.2375 0.1546875 2.5 0.3125 C4.5 3.3125 4.5 3.3125 4.1875 5.9375 C3.5 8.3125 3.5 8.3125 2.5 9.3125 C-0.5 9.4375 -0.5 9.4375 -3.5 9.3125 C-4.5 8.3125 -4.5 8.3125 -4.6875 5.375 C-4.45331344 1.54995285 -3.86571441 0.4832143 0 0 Z " fill="#1EAFA4" transform="translate(572.5,352.6875)"/>
<path d="M0 0 C1.2375 0.1546875 1.2375 0.1546875 2.5 0.3125 C4.5 3.3125 4.5 3.3125 4.1875 5.9375 C3.5 8.3125 3.5 8.3125 2.5 9.3125 C-0.5 9.4375 -0.5 9.4375 -3.5 9.3125 C-4.5 8.3125 -4.5 8.3125 -4.6875 5.375 C-4.45331344 1.54995285 -3.86571441 0.4832143 0 0 Z " fill="#0BAFA3" transform="translate(625.5,270.6875)"/>
<path d="M0 0 C2.5 0.25 2.5 0.25 4.5 2.25 C4.75 4.75 4.75 4.75 4.5 7.25 C2.5 9.25 2.5 9.25 0 9.5 C-2.5 9.25 -2.5 9.25 -4.5 7.25 C-4.75 4.75 -4.75 4.75 -4.5 2.25 C-2.5 0.25 -2.5 0.25 0 0 Z " fill="#1BADA3" transform="translate(572.5,325.75)"/>
<path d="M0 0 C2.5 0.25 2.5 0.25 4.5 2.25 C4.75 4.75 4.75 4.75 4.5 7.25 C2.5 9.25 2.5 9.25 0 9.5 C-2.5 9.25 -2.5 9.25 -4.5 7.25 C-4.75 4.75 -4.75 4.75 -4.5 2.25 C-2.5 0.25 -2.5 0.25 0 0 Z " fill="#1CAEA3" transform="translate(625.5,243.75)"/>
<path d="M0 0 C6.30162703 0.59449312 6.30162703 0.59449312 8.9375 2.125 C10.64550843 5.13913252 10.36204814 7.62088399 10 11 C8.8125 12.9375 8.8125 12.9375 7 14 C4.3125 14.1875 4.3125 14.1875 2 14 C3.875 10.125 3.875 10.125 5 9 C5.04080783 7.00041636 5.04254356 4.99954746 5 3 C2.525 2.01 2.525 2.01 0 1 C0 0.67 0 0.34 0 0 Z " fill="#3B3E8C" transform="translate(515,414)"/>
<path d="M0 0 C3.11459324 2.91365174 4.86513999 4.77480981 5.1328125 9.19140625 C5.13023437 9.97386719 5.12765625 10.75632812 5.125 11.5625 C5.12757813 12.34753906 5.13015625 13.13257813 5.1328125 13.94140625 C5 16 5 16 4 18 C3.01 18 2.02 18 1 18 C0.93941406 17.19175781 0.87882813 16.38351562 0.81640625 15.55078125 C0.73261719 14.48214844 0.64882813 13.41351563 0.5625 12.3125 C0.48128906 11.25675781 0.40007813 10.20101563 0.31640625 9.11328125 C0.05891798 6.03038426 0.05891798 6.03038426 -0.59765625 3.16796875 C-0.73042969 2.45253906 -0.86320313 1.73710937 -1 1 C-0.67 0.67 -0.34 0.34 0 0 Z " fill="#393C8C" transform="translate(594,413)"/>
<path d="M0 0 C0.66 0.99 1.32 1.98 2 3 C-2.455 2.01 -2.455 2.01 -7 1 C-8.17353189 4.52059568 -8.20146402 7.306493 -8 11 C-5.8614515 13.1385485 -4.86724686 13.42655063 -2 14 C-2 13.34 -2 12.68 -2 12 C-1.01 12 -0.02 12 1 12 C1 11.34 1 10.68 1 10 C1.66 10 2.32 10 3 10 C1.25 13.875 1.25 13.875 -1 15 C-7.13545817 15.44621514 -7.13545817 15.44621514 -9.9375 14 C-11.65715177 10.76300843 -11.49741835 7.53167027 -11 4 C-8.8803264 -1.29918399 -5.02423229 -0.55824803 0 0 Z " fill="#2742A4" transform="translate(470,323)"/>
<path d="M0 0 C1.875 1.5 1.875 1.5 3 3 C0.23723823 2.47731534 -2.3260876 1.89130413 -5 1 C-5.2165625 1.9590625 -5.2165625 1.9590625 -5.4375 2.9375 C-6 5 -6 5 -7 6 C-7.04080783 7.99958364 -7.04254356 10.00045254 -7 12 C-6.071875 12.144375 -5.14375 12.28875 -4.1875 12.4375 C-1 13 -1 13 2 14 C-1 16 -1 16 -4 15.875 C-7 15 -7 15 -8.875 13.375 C-10.46134558 10.02604821 -10.45746657 7.65973254 -10 4 C-7.25744073 -0.1138389 -4.81424895 -0.7170158 0 0 Z " fill="#2B46A6" transform="translate(575,268)"/>
<path d="M0 0 C0.33 0 0.66 0 1 0 C1 3.96 1 7.92 1 12 C1.99 12.33 2.98 12.66 4 13 C1.74528051 16.5173624 0.58637329 17.83246477 -3.5 19 C-7 19 -7 19 -9.4375 17.75 C-11 16 -11 16 -11 13 C-10.4225 13.309375 -9.845 13.61875 -9.25 13.9375 C-7.15705816 14.92583364 -5.25464725 15.5168613 -3 16 C-0.96780512 12.59648662 -0.63108961 9.6767073 -0.375 5.75 C-0.30023437 4.67234375 -0.22546875 3.5946875 -0.1484375 2.484375 C-0.09945312 1.66453125 -0.05046875 0.8446875 0 0 Z " fill="#5C5EA3" transform="translate(594,419)"/>
<path d="M0 0 C0.33 0 0.66 0 1 0 C1.50532319 6.84993661 1.21641162 12.34648345 -3 18 C-6.9375 21 -6.9375 21 -10 21 C-10 20.34 -10 19.68 -10 19 C-9.154375 18.236875 -8.30875 17.47375 -7.4375 16.6875 C-6.633125 15.800625 -5.82875 14.91375 -5 14 C-5.32041397 11.39719432 -5.32041397 11.39719432 -6 9 C-4.5625 7.1875 -4.5625 7.1875 -3 6 C-2.01 7.485 -2.01 7.485 -1 9 C-0.67 6.03 -0.34 3.06 0 0 Z " fill="#53559B" transform="translate(578,417)"/>
<path d="M0 0 C3.5625 0.3125 3.5625 0.3125 5.5 1.4375 C7.00734863 4.097527 6.76236253 6.31456205 6.5625 9.3125 C6.2325 9.3125 5.9025 9.3125 5.5625 9.3125 C4.9025 7.3325 4.2425 5.3525 3.5625 3.3125 C1.14604218 3.14562552 1.14604218 3.14562552 -1.4375 3.3125 C-2.0975 3.9725 -2.7575 4.6325 -3.4375 5.3125 C-3.11708603 7.91530568 -3.11708603 7.91530568 -2.4375 10.3125 C-0.1275 10.6425 2.1825 10.9725 4.5625 11.3125 C2.5625 13.3125 2.5625 13.3125 0.1875 13.75 C-2.4375 13.3125 -2.4375 13.3125 -4.8125 11.1875 C-6.4375 8.3125 -6.4375 8.3125 -6.3125 5.125 C-5.03605468 1.02214003 -4.32440699 0.39312791 0 0 Z " fill="#31B5E6" transform="translate(545.4375,214.6875)"/>
<path d="M0 0 C0.99 0.495 0.99 0.495 2 1 C2.33 3.31 2.66 5.62 3 8 C8.61 8 14.22 8 20 8 C19.67 5.69 19.34 3.38 19 1 C21 4 21 4 22 10 C15.73 10 9.46 10 3 10 C0 2 0 2 0 0 Z " fill="#4EBBAA" transform="translate(698,749)"/>
<path d="M0 0 C1.32 0 2.64 0 4 0 C4 4.62 4 9.24 4 14 C2.68 14 1.36 14 0 14 C0 9.38 0 4.76 0 0 Z " fill="#9F9F9F" transform="translate(529,817)"/>
<path d="M0 0 C2.64 0 5.28 0 8 0 C8.11138159 5.45769811 7.91657981 10.61509359 7 16 C1.06 14.515 1.06 14.515 -5 13 C-5 12.67 -5 12.34 -5 12 C-1.7 12 1.6 12 5 12 C5.33 8.7 5.66 5.4 6 2 C4.35 2 2.7 2 1 2 C0.67 1.34 0.34 0.68 0 0 Z " fill="#41B7A5" transform="translate(478,677)"/>
<path d="M0 0 C1.90840988 6.63606163 -0.26624876 11.90163184 -3 18 C-3.78566217 20.38407831 -4.53261682 22.7753894 -5.25390625 25.1796875 C-6 27 -6 27 -8 28 C-6.43618819 18.3043668 -3.20450331 9.25073597 0 0 Z " fill="#4EBFAE" transform="translate(657,723)"/>
<path d="M0 0 C0.66 0.33 1.32 0.66 2 1 C2.6887148 12.82293733 2.6887148 12.82293733 0.125 16.6875 C-2 19 -2 19 -4 20 C-5.87379605 20.07033769 -7.75001102 20.0843022 -9.625 20.0625 C-10.62789063 20.05347656 -11.63078125 20.04445313 -12.6640625 20.03515625 C-13.43492187 20.02355469 -14.20578125 20.01195312 -15 20 C-15 19.67 -15 19.34 -15 19 C-14.24074219 18.91363281 -13.48148437 18.82726562 -12.69921875 18.73828125 C-11.70535156 18.59777344 -10.71148437 18.45726562 -9.6875 18.3125 C-8.70136719 18.18488281 -7.71523438 18.05726563 -6.69921875 17.92578125 C-3.85557645 17.21261014 -3.85557645 17.21261014 -2.1875 14.8125 C-0.85341526 11.65282562 -0.50027927 9.10508271 -0.3125 5.6875 C-0.24675781 4.61886719 -0.18101562 3.55023437 -0.11328125 2.44921875 C-0.07589844 1.64097656 -0.03851563 0.83273437 0 0 Z " fill="#405397" transform="translate(293,517)"/>
<path d="M0 0 C0.33 0 0.66 0 1 0 C1 1.98 1 3.96 1 6 C5.95 6 10.9 6 16 6 C16 4.68 16 3.36 16 2 C16.66 2 17.32 2 18 2 C17.34 3.98 16.68 5.96 16 8 C10.06 8 4.12 8 -2 8 C-1.34 5.36 -0.68 2.72 0 0 Z " fill="#4BB9A8" transform="translate(648,751)"/>
<path d="M0 0 C1.82021199 5.05614441 0.59756444 9.68535823 -1.5625 14.4375 C-2.036875 15.283125 -2.51125 16.12875 -3 17 C-0.03 17 2.94 17 6 17 C6.33 15.35 6.66 13.7 7 12 C8.125 15.75 8.125 15.75 7 18 C3.04 18 -0.92 18 -5 18 C-1.85714286 5.14285714 -1.85714286 5.14285714 0 0 Z " fill="#26B0E4" transform="translate(607,638)"/>
<path d="M0 0 C0.26404456 6.86515862 -0.74158054 13.25846717 -2 20 C-2.33 20 -2.66 20 -3 20 C-3.33 14.39 -3.66 8.78 -4 3 C-4.66 3 -5.32 3 -6 3 C-6 2.34 -6 1.68 -6 1 C-4 0 -4 0 0 0 Z " fill="#34378F" transform="translate(545,413)"/>
<path d="M0 0 C2.625 0.375 2.625 0.375 5 1 C5.125 3.375 5.125 3.375 5 6 C4.34 6.66 3.68 7.32 3 8 C0.375 7.625 0.375 7.625 -2 7 C-2.125 4.625 -2.125 4.625 -2 2 C-1.34 1.34 -0.68 0.68 0 0 Z " fill="#D8F9F7" transform="translate(598,327)"/>
<path d="M0 0 C0.33 0 0.66 0 1 0 C1.03738281 0.96679688 1.07476562 1.93359375 1.11328125 2.9296875 C1.50625826 10.71217329 2.24287894 17.6303368 5 25 C0.79082783 21.21174505 -0.85333744 18.21485327 -1.23046875 12.51953125 C-1.21628906 11.29621094 -1.20210938 10.07289063 -1.1875 8.8125 C-1.18105469 7.58144531 -1.17460937 6.35039063 -1.16796875 5.08203125 C-1 2 -1 2 0 0 Z " fill="#B7EFFC" transform="translate(391,619)"/>
<path d="M0 0 C0.33 0 0.66 0 1 0 C1.33 6.6 1.66 13.2 2 20 C5.63 20.66 9.26 21.32 13 22 C13 22.33 13 22.66 13 23 C6.73 23 0.46 23 -6 23 C-5.67 22.34 -5.34 21.68 -5 21 C-3.35 21.33 -1.7 21.66 0 22 C0 14.74 0 7.48 0 0 Z " fill="#686AAA" transform="translate(459,415)"/>
<path d="M0 0 C0.66 0.33 1.32 0.66 2 1 C2 4.96 2 8.92 2 13 C4.29629994 14.14814997 6.07698086 14.30769809 8.625 14.5625 C9.44226563 14.64628906 10.25953125 14.73007812 11.1015625 14.81640625 C11.72804688 14.87699219 12.35453125 14.93757812 13 15 C9.80545772 17.12969485 9.50853075 17.2390304 6 16.6875 C5.319375 16.58824219 4.63875 16.48898437 3.9375 16.38671875 C2 16 2 16 -1 15 C-1.02715383 13.25008666 -1.04646551 11.50005055 -1.0625 9.75 C-1.07410156 8.77546875 -1.08570313 7.8009375 -1.09765625 6.796875 C-1.01195577 4.34241322 -0.70706066 2.33831086 0 0 Z " fill="#35B09D" transform="translate(442,742)"/>
<path d="M0 0 C1.62610337 4.22786875 0.65453403 5.03639791 -1 10 C3.62 10 8.24 10 13 10 C13 7.03 13 4.06 13 1 C15 5 15 5 16 11 C10.06 11 4.12 11 -2 11 C-1 3 -1 3 0 0 Z " fill="#BAF2EA" transform="translate(676,715)"/>
<path d="M0 0 C0 0.66 0 1.32 0 2 C-1.670625 2.433125 -1.670625 2.433125 -3.375 2.875 C-7.00291092 3.69241329 -7.00291092 3.69241329 -9 6 C-9.16677282 9.58343976 -9.16677282 9.58343976 -9 13 C-10.5625 11.9375 -10.5625 11.9375 -12 10 C-11.87938384 6.62274748 -11.57377738 4.04629993 -9.9375 1.0625 C-6.72427107 -0.69959328 -3.6157826 -0.17782537 0 0 Z " fill="#324CAB" transform="translate(497,350)"/>
<path d="M0 0 C0.33 0 0.66 0 1 0 C1.33 3.63 1.66 7.26 2 11 C4.64 11 7.28 11 10 11 C10 11.66 10 12.32 10 13 C7.1419611 13.23816991 4.80188855 13.42242213 2 13 C-1.10400106 10.3615991 -1.89950833 8.85417922 -2.375 4.8125 C-2 2 -2 2 0 0 Z " fill="#3751AE" transform="translate(434,298)"/>
<path d="M0 0 C0.33 0 0.66 0 1 0 C1.33 5.94 1.66 11.88 2 18 C2.66 18.33 3.32 18.66 4 19 C4 19.66 4 20.32 4 21 C0.7 21 -2.6 21 -6 21 C-6 20.34 -6 19.68 -6 19 C-4.68 18.34 -3.36 17.68 -2 17 C-2 17.66 -2 18.32 -2 19 C-1.34 19 -0.68 19 0 19 C0 12.73 0 6.46 0 0 Z " fill="#515499" transform="translate(481,417)"/>
<path d="M0 0 C3.24292328 5.79093442 4.26905686 11.40810703 4 18 C-0.29 18 -4.58 18 -9 18 C-9 17.67 -9 17.34 -9 17 C-5.04 17 -1.08 17 3 17 C2.54947266 15.66195312 2.54947266 15.66195312 2.08984375 14.296875 C1.51943359 12.54117188 1.51943359 12.54117188 0.9375 10.75 C0.55464844 9.58984375 0.17179688 8.4296875 -0.22265625 7.234375 C-0.95211763 4.19922915 -1.11889082 2.84296787 0 0 Z " fill="#B4EDFB" transform="translate(648,639)"/>
<path d="M0 0 C5.28 0 10.56 0 16 0 C15.67 0.66 15.34 1.32 15 2 C10.71 2 6.42 2 2 2 C1.67 3.32 1.34 4.64 1 6 C-0.69014085 10.84507042 -0.69014085 10.84507042 -3 12 C-2.01 8.04 -1.02 4.08 0 0 Z " fill="#30B5E7" transform="translate(619,601)"/>
<path d="M0 0 C0.33 0.66 0.66 1.32 1 2 C0.05125 2.28875 -0.8975 2.5775 -1.875 2.875 C-5.05211578 3.76825109 -5.05211578 3.76825109 -7 6 C-7.40047444 8.32275177 -7.7397104 10.65739357 -8 13 C-8.66 12.67 -9.32 12.34 -10 12 C-10.42880585 7.62618037 -10.48534354 5.65174704 -7.8125 2.0625 C-4.80004811 -0.14663138 -3.62732988 -0.51818998 0 0 Z " fill="#2D48A6" transform="translate(575,295)"/>
<path d="M0 0 C0.67224609 -0.01224609 1.34449219 -0.02449219 2.03710938 -0.03710938 C5.73628237 -0.04812975 7.27721933 0.08064622 10.4375 2.1875 C9.29410156 2.17589844 8.15070313 2.16429687 6.97265625 2.15234375 C5.48177246 2.14296712 3.99088691 2.13386679 2.5 2.125 C1.74525391 2.11662109 0.99050781 2.10824219 0.21289062 2.09960938 C-1.71244313 2.09097559 -3.63785581 2.13525667 -5.5625 2.1875 C-5.8925 2.5175 -6.2225 2.8475 -6.5625 3.1875 C-8.56208364 3.22830783 -10.56295254 3.23004356 -12.5625 3.1875 C-12.5625 3.8475 -12.5625 4.5075 -12.5625 5.1875 C-13.8825 4.8575 -15.2025 4.5275 -16.5625 4.1875 C-10.81202653 0.5135864 -6.83716158 0.03341721 0 0 Z " fill="#3ABBEB" transform="translate(403.5625,599.8125)"/>
<path d="M0 0 C3.00617269 3.00617269 2.59585316 5.82381598 3 10 C2.67 9.01 2.34 8.02 2 7 C1.54625 7.495 1.0925 7.99 0.625 8.5 C-1 10 -1 10 -3 10 C-3.33 10.99 -3.66 11.98 -4 13 C-3.50269348 8.02693484 -2.44697666 4.36200187 0 0 Z " fill="#BBF0EA" transform="translate(683,695)"/>
<path d="M0 0 C2.79024052 4.18536078 3.10154594 8.05850265 4 13 C-1.94 13 -7.88 13 -14 13 C-14 12.67 -14 12.34 -14 12 C-9.05 12 -4.1 12 1 12 C0.67 8.04 0.34 4.08 0 0 Z " fill="#4B5C9C" transform="translate(444,567)"/>
<path d="M0 0 C0.66 0.33 1.32 0.66 2 1 C2.6328125 3.50390625 2.6328125 3.50390625 3.125 6.5625 C3.29257812 7.57441406 3.46015625 8.58632813 3.6328125 9.62890625 C3.75398437 10.41136719 3.87515625 11.19382812 4 12 C2.68 12 1.36 12 0 12 C-1.1898306 9.6203388 -1.13349966 8.08514265 -1.125 5.4375 C-1.12886719 4.22900391 -1.12886719 4.22900391 -1.1328125 2.99609375 C-1 1 -1 1 0 0 Z " fill="#3E408D" transform="translate(582,421)"/>
<path d="M0 0 C1.65 0 3.3 0 5 0 C5.38218767 1.65614657 5.71395102 3.32457024 6 5 C5 6 5 6 1.9375 6.0625 C0.4834375 6.0315625 0.4834375 6.0315625 -1 6 C-0.67 4.02 -0.34 2.04 0 0 Z " fill="#BCECE9" transform="translate(597,355)"/>
<path d="M0 0 C0.66 0 1.32 0 2 0 C2.433125 1.423125 2.433125 1.423125 2.875 2.875 C3.76825109 6.05211578 3.76825109 6.05211578 6 8 C5.67 8.66 5.34 9.32 5 10 C0.125 8.125 0.125 8.125 -1 7 C-1.125 4 -1.125 4 -1 1 C-0.67 0.67 -0.34 0.34 0 0 Z " fill="#4C4E96" transform="translate(431,428)"/>
<path d="M0 0 C0 3.3 0 6.6 0 10 C-1.32 10.33 -2.64 10.66 -4 11 C-3.67 10.34 -3.34 9.68 -3 9 C-2.34 9 -1.68 9 -1 9 C-1.66 7.02 -2.32 5.04 -3 3 C-6.96 3 -10.92 3 -15 3 C-15 2.67 -15 2.34 -15 2 C-13.95199219 1.90912109 -13.95199219 1.90912109 -12.8828125 1.81640625 C-11.97273438 1.73261719 -11.06265625 1.64882813 -10.125 1.5625 C-9.22007812 1.48128906 -8.31515625 1.40007813 -7.3828125 1.31640625 C-4.53561148 0.9383353 -2.95461696 0 0 0 Z " fill="#3EBBEA" transform="translate(416,645)"/>
<path d="M0 0 C1.65 0 3.3 0 5 0 C4.67 1.65 4.34 3.3 4 5 C3.34 5 2.68 5 2 5 C2 10.28 2 15.56 2 21 C1.67 21 1.34 21 1 21 C0.67 14.07 0.34 7.14 0 0 Z " fill="#5D5FA3" transform="translate(454,414)"/>
<path d="M0 0 C0.33 0 0.66 0 1 0 C1 3.63 1 7.26 1 11 C0.195625 10.690625 -0.60875 10.38125 -1.4375 10.0625 C-5.62249087 8.81434483 -9.66306101 8.3662304 -14 8 C-14 7.67 -14 7.34 -14 7 C-9.38 7 -4.76 7 0 7 C0 4.69 0 2.38 0 0 Z " fill="#49C1EE" transform="translate(415,602)"/>
<path d="M0 0 C3.1875 -0.25 3.1875 -0.25 6 0 C6.33 1.32 6.66 2.64 7 4 C3.7 4 0.4 4 -3 4 C-2.01 2.68 -1.02 1.36 0 0 Z " fill="#F8F8F8" transform="translate(513,833)"/>
<path d="M0 0 C3.1875 -0.25 3.1875 -0.25 6 0 C6.33 1.32 6.66 2.64 7 4 C3.7 4 0.4 4 -3 4 C-2.01 2.68 -1.02 1.36 0 0 Z " fill="#F8F8F8" transform="translate(431,833)"/>
<path d="M0 0 C3.1875 -0.25 3.1875 -0.25 6 0 C6.33 1.32 6.66 2.64 7 4 C3.7 4 0.4 4 -3 4 C-2.01 2.68 -1.02 1.36 0 0 Z " fill="#F8F8F8" transform="translate(372,833)"/>
<path d="M0 0 C3.27320553 6.17639651 5.55618343 12.95500989 5 20 C3.15443924 16.60116186 1.97358787 13.12196294 0.8125 9.4375 C0.44769531 8.30183594 0.08289063 7.16617188 -0.29296875 5.99609375 C-1 3 -1 3 0 0 Z " fill="#BFF4FD" transform="translate(642,620)"/>
<path d="M0 0 C0.33 0 0.66 0 1 0 C1.66 3.63 2.32 7.26 3 11 C4.32 11.33 5.64 11.66 7 12 C3.6875 11.8125 3.6875 11.8125 0 11 C-1.9375 8.4375 -1.9375 8.4375 -3 6 C-2.34 5.34 -1.68 4.68 -1 4 C-0.3574765 1.93125966 -0.3574765 1.93125966 0 0 Z " fill="#545697" transform="translate(550,417)"/>
<path d="M0 0 C0.33 0 0.66 0 1 0 C1 1.65 1 3.3 1 5 C1.66 5 2.32 5 3 5 C3.33 4.34 3.66 3.68 4 3 C4 5.64 4 8.28 4 11 C3.34 10.67 2.68 10.34 2 10 C1.67 11.98 1.34 13.96 1 16 C0.67 16 0.34 16 0 16 C0 10.72 0 5.44 0 0 Z " fill="#BBBDDD" transform="translate(482,419)"/>
<path d="M0 0 C0.33 0.66 0.66 1.32 1 2 C-0.093125 2.12375 -1.18625 2.2475 -2.3125 2.375 C-6.07381802 2.75464801 -6.07381802 2.75464801 -9 5 C-9.73343428 8.06556598 -9.73343428 8.06556598 -10 11 C-10.33 11 -10.66 11 -11 11 C-11.19966912 7.53906866 -11.32761013 4.7985497 -10 1.5625 C-6.81039012 -0.92938272 -3.96543085 -0.26002825 0 0 Z " fill="#2B46A6" transform="translate(523,323)"/>
<path d="M0 0 C0.78375 0.04125 1.5675 0.0825 2.375 0.125 C2.705 1.115 3.035 2.105 3.375 3.125 C0.405 2.63 0.405 2.63 -2.625 2.125 C-2.625 4.105 -2.625 6.085 -2.625 8.125 C-0.975 8.125 0.675 8.125 2.375 8.125 C2.375 8.455 2.375 8.785 2.375 9.125 C0.37545254 9.16754356 -1.62541636 9.16580783 -3.625 9.125 C-4.625 8.125 -4.625 8.125 -4.8125 5.1875 C-4.57390036 1.29037256 -3.98646018 0.18983144 0 0 Z " fill="#36B0A6" transform="translate(625.625,270.875)"/>
<path d="M0 0 C2.4375 1.625 2.4375 1.625 4 4 C4.25 7.25 4.25 7.25 4 10 C3.67 10 3.34 10 3 10 C2.5359375 8.5459375 2.5359375 8.5459375 2.0625 7.0625 C1.30476658 4.15934208 1.30476658 4.15934208 0 3 C-4.14276875 2.75266863 -4.14276875 2.75266863 -8 4 C-8.33 3.01 -8.66 2.02 -9 1 C-5.90826248 -0.54586876 -3.40570448 -0.29359521 0 0 Z " fill="#304AA5" transform="translate(523,241)"/>
<path d="M0 0 C0.66 0 1.32 0 2 0 C2 0.66 2 1.32 2 2 C2.66 2 3.32 2 4 2 C4 6.95 4 11.9 4 17 C3.01 17.33 2.02 17.66 1 18 C1.165 17.505 1.33 17.01 1.5 16.5 C2.69201702 10.53991488 2.24558014 5.61395035 0 0 Z " fill="#CFFAFE" transform="translate(593,606)"/>
<path d="M0 0 C0.33 0 0.66 0 1 0 C1.66 2.64 2.32 5.28 3 8 C5.64 8.66 8.28 9.32 11 10 C10.67 10.66 10.34 11.32 10 12 C6.54330418 12.31424507 4.60098323 12.37956836 1.625 10.5 C-0.73613198 6.86748926 -0.2854378 4.28156703 0 0 Z " fill="#324BA8" transform="translate(406,299)"/>
<path d="M0 0 C0.66 0 1.32 0 2 0 C0.63016497 3.16115776 0.0109362 3.9927092 -3 6 C-5.04296875 6.1953125 -5.04296875 6.1953125 -7.1875 6.125 C-9.0746875 6.063125 -9.0746875 6.063125 -11 6 C-10.34 5.67 -9.68 5.34 -9 5 C-8.67 4.34 -8.34 3.68 -8 3 C-6.8553125 3.0928125 -6.8553125 3.0928125 -5.6875 3.1875 C-2.52219632 2.96666486 -2.01513783 2.30301466 0 0 Z " fill="#525492" transform="translate(503,432)"/>
<path d="M0 0 C4.75 0.875 4.75 0.875 7 2 C9.37123246 2.23029956 11.74741943 2.41119942 14.125 2.5625 C15.40632813 2.64628906 16.68765625 2.73007812 18.0078125 2.81640625 C19.48894531 2.90728516 19.48894531 2.90728516 21 3 C21 3.33 21 3.66 21 4 C18.62429457 4.0816082 16.25144159 4.14077222 13.875 4.1875 C13.20984375 4.21263672 12.5446875 4.23777344 11.859375 4.26367188 C7.13097708 4.33320714 4.04878521 3.40278375 0 1 C0 0.67 0 0.34 0 0 Z " fill="#44BCE9" transform="translate(389,653)"/>
<path d="M0 0 C0.7734375 0.433125 0.7734375 0.433125 1.5625 0.875 C4.62356725 2.28780027 7.74944918 3.1248517 11 4 C9 6 9 6 6.625 6.3125 C3.52234635 5.94313647 2.19721798 5.19721798 0 3 C0 2.01 0 1.02 0 0 Z " fill="#555797" transform="translate(583,432)"/>
<path d="M0 0 C1.33256282 3.64120668 0.65840377 5.66876554 -0.8125 9.1875 C-1.16957031 10.06792969 -1.52664063 10.94835937 -1.89453125 11.85546875 C-3 14 -3 14 -5 15 C-3.25740319 4.44191344 -3.25740319 4.44191344 0 0 Z " fill="#33B3A0" transform="translate(654,736)"/>
<path d="M0 0 C0.33 0 0.66 0 1 0 C1.1953125 6.0546875 1.1953125 6.0546875 1 8 C0.34 8.66 -0.32 9.32 -1 10 C-1.71408334 11.98356483 -2.38617742 13.98315437 -3 16 C-4.57159226 12.85681547 -3.04018399 10.07066611 -2.0625 6.875 C-1.86720703 6.21628906 -1.67191406 5.55757812 -1.47070312 4.87890625 C-0.98695014 3.25066448 -0.49430925 1.62506818 0 0 Z " fill="#46BCAA" transform="translate(668,689)"/>
<path d="M0 0 C3 1 3 1 4 3 C4.04022391 5.3329866 4.04320247 7.66706666 4 10 C3.67 10 3.34 10 3 10 C2.67 8.35 2.34 6.7 2 5 C1.67 5 1.34 5 1 5 C0.67 6.98 0.34 8.96 0 11 C-0.33 11 -0.66 11 -1 11 C-1.125 3.375 -1.125 3.375 0 0 Z " fill="#50539C" transform="translate(581,417)"/>
<path d="M0 0 C0.33 0 0.66 0 1 0 C1.05416188 1.60379341 1.09286638 3.20811406 1.125 4.8125 C1.14820313 5.70582031 1.17140625 6.59914063 1.1953125 7.51953125 C1 10 1 10 -1 13 C-2.0070238 7.96488101 -1.97387813 4.76052962 0 0 Z " fill="#31358D" transform="translate(577,416)"/>
<path d="M0 0 C1.68178661 2.52267991 2.90106742 4.81091823 4.125 7.5625 C4.47820312 8.34753906 4.83140625 9.13257813 5.1953125 9.94140625 C6 12 6 12 6 14 C5.01 13.67 4.02 13.34 3 13 C2.05078125 11.07421875 2.05078125 11.07421875 1.3125 8.6875 C0.93544922 7.51767578 0.93544922 7.51767578 0.55078125 6.32421875 C0 4 0 4 0 0 Z " fill="#BDF4FE" transform="translate(480,624)"/>
<path d="M0 0 C-0.33 0.99 -0.66 1.98 -1 3 C-4.3 3.33 -7.6 3.66 -11 4 C-7.65667474 -0.27945633 -5.29105716 -0.4070044 0 0 Z " fill="#4B4D93" transform="translate(499,414)"/>
<path d="M0 0 C0.66 0 1.32 0 2 0 C1.75 2.375 1.75 2.375 1 5 C-1.56310828 6.7941758 -2.83119306 7 -6 7 C-6 6.34 -6 5.68 -6 5 C-4.34467377 3.98133771 -2.67739862 2.98189187 -1 2 C-0.67 1.34 -0.34 0.68 0 0 Z " fill="#595A96" transform="translate(558,431)"/>
<path d="M0 0 C0.66 0 1.32 0 2 0 C1.67 2.31 1.34 4.62 1 7 C0.01 7.33 -0.98 7.66 -2 8 C-2.125 5.125 -2.125 5.125 -2 2 C-1.34 1.34 -0.68 0.68 0 0 Z " fill="#383B89" transform="translate(549,414)"/>
<path d="M0 0 C2.97 0 5.94 0 9 0 C8.01 1.485 8.01 1.485 7 3 C3.875 3.1875 3.875 3.1875 1 3 C0.67 2.01 0.34 1.02 0 0 Z " fill="#3650AF" transform="translate(515,363)"/>
<path d="M0 0 C1.32 0 2.64 0 4 0 C4 1.65 4 3.3 4 5 C2.35 4.67 0.7 4.34 -1 4 C-0.67 2.68 -0.34 1.36 0 0 Z " fill="#3CB1A8" transform="translate(597,328)"/>
<path d="M0 0 C1.27875 -0.061875 2.5575 -0.12375 3.875 -0.1875 C4.95394531 -0.23970703 4.95394531 -0.23970703 6.0546875 -0.29296875 C6.69664062 -0.19628906 7.33859375 -0.09960938 8 0 C8.66 0.99 9.32 1.98 10 3 C5.545 2.01 5.545 2.01 1 1 C0.67 1.99 0.34 2.98 0 4 C-0.66 4 -1.32 4 -2 4 C-1.34 2.68 -0.68 1.36 0 0 Z " fill="#354EA9" transform="translate(462,323)"/>
<path d="M0 0 C0 0.33 0 0.66 0 1 C-1.546875 1.3403125 -1.546875 1.3403125 -3.125 1.6875 C-7.34408258 2.86471856 -9.81536784 5.04838971 -13 8 C-10.64175733 0.72875178 -7.4631798 -0.43056807 0 0 Z " fill="#D8E0F5" transform="translate(548,510)"/>
<path d="M0 0 C0.99 0.99 1.98 1.98 3 3 C0.60490662 5.89932357 -1.31245243 6.50168276 -5 7 C-5 5 -5 5 -2.5 2.375 C-1.675 1.59125 -0.85 0.8075 0 0 Z " fill="#5B5D98" transform="translate(573,431)"/>
<path d="M0 0 C0.33 0 0.66 0 1 0 C1 3.3 1 6.6 1 10 C0.01 10 -0.98 10 -2 10 C-1.85950482 8.52031676 -1.71245174 7.04125484 -1.5625 5.5625 C-1.48128906 4.73878906 -1.40007813 3.91507812 -1.31640625 3.06640625 C-1 1 -1 1 0 0 Z " fill="#31348F" transform="translate(597,421)"/>
<path d="M0 0 C0.99 0.33 1.98 0.66 3 1 C3 2.98 3 4.96 3 7 C2.01 7 1.02 7 0 7 C-0.38133299 5.0085944 -0.71325582 3.00720923 -1 1 C-0.67 0.67 -0.34 0.34 0 0 Z " fill="#444691" transform="translate(447,408)"/>
<path d="M0 0 C2.475 0.495 2.475 0.495 5 1 C4.67 2.32 4.34 3.64 4 5 C2.68 4.67 1.36 4.34 0 4 C0 2.68 0 1.36 0 0 Z " fill="#4A4D92" transform="translate(455,406)"/>
<path d="M0 0 C1.32 0 2.64 0 4 0 C3.67 1.65 3.34 3.3 3 5 C1.68 4.67 0.36 4.34 -1 4 C-0.67 2.68 -0.34 1.36 0 0 Z " fill="#3AB1A8" transform="translate(650,301)"/>
<path d="M0 0 C0.33 0.66 0.66 1.32 1 2 C0.05125 2.309375 -0.8975 2.61875 -1.875 2.9375 C-4.86080408 3.87394742 -4.86080408 3.87394742 -7 5 C-7.66 4.34 -8.32 3.68 -9 3 C-5.92807025 0.26939578 -4.09590633 -0.34132553 0 0 Z " fill="#3A53AE" transform="translate(522,295)"/>
<path d="M0 0 C0.33 0.66 0.66 1.32 1 2 C0.05125 2.309375 -0.8975 2.61875 -1.875 2.9375 C-4.86080408 3.87394742 -4.86080408 3.87394742 -7 5 C-7.66 4.34 -8.32 3.68 -9 3 C-5.92807025 0.26939578 -4.09590633 -0.34132553 0 0 Z " fill="#3B54AE" transform="translate(416,295)"/>
<path d="M0 0 C1.98 0.495 1.98 0.495 4 1 C4 2.32 4 3.64 4 5 C2.35 4.67 0.7 4.34 -1 4 C-0.67 2.68 -0.34 1.36 0 0 Z " fill="#39B0A8" transform="translate(650,273)"/>
<path d="M0 0 C0 0.33 0 0.66 0 1 C-0.94875 1.268125 -1.8975 1.53625 -2.875 1.8125 C-6.25267273 2.74986588 -6.25267273 2.74986588 -8 6 C-8.38499891 7.65549531 -8.72793135 9.3222433 -9 11 C-9.33 11 -9.66 11 -10 11 C-10.48275862 4.72413793 -10.48275862 4.72413793 -8.375 1.5625 C-5.397402 -0.39644605 -3.49644963 -0.31785906 0 0 Z " fill="#3851AC" transform="translate(416,268)"/>
<path d="M0 0 C1.32 0 2.64 0 4 0 C3.67 1.65 3.34 3.3 3 5 C1.68 4.67 0.36 4.34 -1 4 C-0.67 2.68 -0.34 1.36 0 0 Z " fill="#36AFA5" transform="translate(650,246)"/>
<path d="M0 0 C1.32 0 2.64 0 4 0 C3.67 1.65 3.34 3.3 3 5 C1.68 4.67 0.36 4.34 -1 4 C-0.67 2.68 -0.34 1.36 0 0 Z " fill="#38AEA5" transform="translate(597,219)"/>
<path d="M0 0 C1.98 0.495 1.98 0.495 4 1 C4 2.32 4 3.64 4 5 C2.35 4.67 0.7 4.34 -1 4 C-0.67 2.68 -0.34 1.36 0 0 Z " fill="#38AFA6" transform="translate(597,191)"/>
<path d="M0 0 C1.98 0.495 1.98 0.495 4 1 C3.67 2.32 3.34 3.64 3 5 C1.68 4.67 0.36 4.34 -1 4 C-0.67 2.68 -0.34 1.36 0 0 Z " fill="#9D9D9D" transform="translate(676,820)"/>
<path d="M0 0 C0.66 0.33 1.32 0.66 2 1 C-1.85623679 5.82029598 -1.85623679 5.82029598 -5.11328125 6.33203125 C-7.07856214 6.3145776 -9.04166127 6.16596091 -11 6 C-11 5.67 -11 5.34 -11 5 C-8.69 5 -6.38 5 -4 5 C-4 4.34 -4 3.68 -4 3 C-2 1.375 -2 1.375 0 0 Z " fill="#545692" transform="translate(524,432)"/>
<path d="M0 0 C2.64 0 5.28 0 8 0 C8 0.66 8 1.32 8 2 C3.545 2.495 3.545 2.495 -1 3 C-0.67 2.01 -0.34 1.02 0 0 Z " fill="#3E58B3" transform="translate(489,350)"/>
<path d="M0 0 C1.04973814 4.19895255 0.72795155 6.79405774 0 11 C-0.99 11 -1.98 11 -3 11 C-2.01 7.37 -1.02 3.74 0 0 Z " fill="#41BEEB" transform="translate(607,638)"/>
<path d="M0 0 C1.58502671 3.17005342 1.60385067 6.49124878 2 10 C1.01 10.495 1.01 10.495 0 11 C-1.77084117 8.29165469 -2.01052504 7.10735541 -1.6875 3.8125 C-1 1 -1 1 0 0 Z " fill="#2742A4" transform="translate(540,298)"/>
<path d="M0 0 C1.60372657 4.00931642 0.38691773 7.05823382 -1 11 C-1.66 11.66 -2.32 12.32 -3 13 C-2.343621 8.51474352 -1.29925791 4.33085971 0 0 Z " fill="#C6F5EF" transform="translate(669,741)"/>
<path d="M0 0 C0.66 0 1.32 0 2 0 C3.99785435 4.1205746 4.17835515 7.45194365 4 12 C3.67 12 3.34 12 3 12 C2.49440092 10.56445975 1.9957251 9.1264798 1.5 7.6875 C1.2215625 6.88699219 0.943125 6.08648438 0.65625 5.26171875 C0 3 0 3 0 0 Z " fill="#2DB19D" transform="translate(407,697)"/>
<path d="M0 0 C0.58265625 0.21527344 1.1653125 0.43054688 1.765625 0.65234375 C0.31298462 1.51615665 -1.1466913 2.36814829 -2.609375 3.21484375 C-3.82753906 3.92833984 -3.82753906 3.92833984 -5.0703125 4.65625 C-5.78445313 4.98496094 -6.49859375 5.31367187 -7.234375 5.65234375 C-7.894375 5.32234375 -8.554375 4.99234375 -9.234375 4.65234375 C-8.16330383 3.78285058 -7.07691556 2.9322017 -5.984375 2.08984375 C-5.38109375 1.61417969 -4.7778125 1.13851562 -4.15625 0.6484375 C-2.234375 -0.34765625 -2.234375 -0.34765625 0 0 Z " fill="#2DAF9B" transform="translate(382.234375,678.34765625)"/>
<path d="M0 0 C1 2 1 2 0.44140625 4.1640625 C0.15136719 4.97617187 -0.13867188 5.78828125 -0.4375 6.625 C-0.72496094 7.44226563 -1.01242187 8.25953125 -1.30859375 9.1015625 C-1.53675781 9.72804688 -1.76492188 10.35453125 -2 11 C-2.66 10.67 -3.32 10.34 -4 10 C-3.52449439 8.51965236 -3.04448784 7.04074979 -2.5625 5.5625 C-2.29566406 4.73878906 -2.02882813 3.91507813 -1.75390625 3.06640625 C-1 1 -1 1 0 0 Z " fill="#415397" transform="translate(519,510)"/>
<path d="M0 0 C0.66 0.33 1.32 0.66 2 1 C2 2.98 2 4.96 2 7 C1.01 7.495 1.01 7.495 0 8 C-0.38063221 5.6739143 -0.71269945 3.33944736 -1 1 C-0.67 0.67 -0.34 0.34 0 0 Z " fill="#303491" transform="translate(582,421)"/>
<path d="M0 0 C3 -0.375 3 -0.375 6 0 C6.66 0.99 7.32 1.98 8 3 C4.7 3 1.4 3 -2 3 C-1.34 2.01 -0.68 1.02 0 0 Z " fill="#2EB6E9" transform="translate(543,324)"/>
<path d="M0 0 C0.66 0.33 1.32 0.66 2 1 C2.1875 4.375 2.1875 4.375 2 8 C1.01 8.66 0.02 9.32 -1 10 C-0.67 6.7 -0.34 3.4 0 0 Z " fill="#364FAC" transform="translate(472,244)"/>
<path d="M0 0 C2.12046792 3.53411321 2.53199289 6.94393835 3 11 C0.17661571 7.8083482 -0.62384955 5.23169259 -1 1 C-0.67 0.67 -0.34 0.34 0 0 Z " fill="#D1F7F3" transform="translate(700,690)"/>
<path d="M0 0 C0.33 0 0.66 0 1 0 C1.33 3.63 1.66 7.26 2 11 C1.01 11.33 0.02 11.66 -1 12 C-0.67 8.04 -0.34 4.08 0 0 Z " fill="#6473AD" transform="translate(353,517)"/>
<path d="M0 0 C0.66 0 1.32 0 2 0 C2.33 2.64 2.66 5.28 3 8 C2.67 7.01 2.34 6.02 2 5 C1.01 5.33 0.02 5.66 -1 6 C-0.67 4.02 -0.34 2.04 0 0 Z " fill="#ADBAE1" transform="translate(413,515)"/>
<path d="M0 0 C2.97 0.33 5.94 0.66 9 1 C8.34 1.66 7.68 2.32 7 3 C3.375 2.625 3.375 2.625 0 2 C0 1.34 0 0.68 0 0 Z " fill="#3F57B2" transform="translate(488,363)"/>
<path d="M0 0 C1.32 0 2.64 0 4 0 C4 1.32 4 2.64 4 4 C2.35 3.67 0.7 3.34 -1 3 C-0.67 2.01 -0.34 1.02 0 0 Z " fill="#29A9A0" transform="translate(597,356)"/>
<path d="M0 0 C0.33 0 0.66 0 1 0 C1.1875 3.375 1.1875 3.375 1 7 C0.01 7.66 -0.98 8.32 -2 9 C-1.125 2.25 -1.125 2.25 0 0 Z " fill="#43BAA9" transform="translate(364,696)"/>
<path d="M0 0 C0.66 0 1.32 0 2 0 C1.814375 0.9075 1.62875 1.815 1.4375 2.75 C1.04265379 5.68314324 1.05308428 7.2644657 2 10 C0.5 8.875 0.5 8.875 -1 7 C-1.25 3.875 -1.25 3.875 -1 1 C-0.67 0.67 -0.34 0.34 0 0 Z " fill="#19369D" transform="translate(513,299)"/>
<path d="M0 0 C-3.22791555 2.1519437 -4.28400809 2.20086443 -8 2 C-8.33 1.34 -8.66 0.68 -9 0 C-5.62182575 -0.84454356 -3.32534757 -1.10844919 0 0 Z " fill="#354FAA" transform="translate(498,200)"/>
<path d="M0 0 C0.33 0 0.66 0 1 0 C1.36923077 5.53846154 1.36923077 5.53846154 -0.5 7.875 C-1.2425 8.431875 -1.2425 8.431875 -2 9 C-1.125 2.25 -1.125 2.25 0 0 Z " fill="#3651AF" transform="translate(473,191)"/>
</svg>
